<?xml version="1.0" encoding="UTF-8"?><svg id="a" xmlns="http://www.w3.org/2000/svg" viewBox="0 0 234.9 202.1"><g id="b"><g id="c"><path id="d" d="m135.8,42.9c.5.5,1.3,4.4.4,5.3-.6.6-1.6.5-2.1,0,0,0,0,0,0,0-1.1-1.4-1.3-4.6-1-5.5.2-.8,2.3-.2,2.8.4Z" fill="#fff"/><path id="e" d="m150.8,10.9c0,.4-.4.2-1.1.9-4.6,4.2-1.7,7.1-3,9.6-.8,1.9.3,2.7.2,4.6,0,.3,0,.4-.4.4-1.1-.3-2.5.8-3.7.2-1.3-.7-1.8.4-2.8-.1-.7-.4-1.8.9-3.6-1.6-.3-.4-.4-.8-.5-1.2,0-.4,2,0,1.2-.5-2.3-1.5-2.8-5.9-2.3-8.1.2-1.2,1.7.4,2.3.2.3-.1.3-.9.5-1.7,1.1-4.9,3.8-6.7,4.1-5.7.4,1.5.4,3.9,1.1,2.9,3-4.5,6.1-4.7,5.9-3.2-.5,2.8.3,2,1.4,2.4.3,0,.5.2.7.5,0,.1.1.3.2.4,0,.1,0,.3,0,.4h0Z" fill="#fddd8d"/><path id="f" d="m146.6,191.4c-.1,1.2-1.2,5.3-1.2,5.3,0,.9-.1,1-.4,1.1-7,.4-1.3-.8-11.6-2.1.9-5.6,2.9-2.5,7.8-2.9,1.3.2,2.7,0,3.9-.7.9-.4.8-.5,1.6-.7Z" fill="#fddd8d"/><path id="g" d="m140,108.9c.6-1.5,1.5-2.9,2.6-4.2,1.2-1.4,2.6-2.7,4-3.8,0,.1,4.5-.8,6.1-.6s4.1,0,4.5.7c.6,1.3-2.4.9-6,4.7-1.9,1.9-1.3,3.9-3.3,3.9s-6.8-1.2-7.8-.6Z" fill="#fddd8d"/><path id="h" d="m115.2,31.2c0,6.5-.4,7.3-.4,19-.2,40.6-.5,39.1-2.2,40.5-1.3.9-2.7,1.6-4.2,1.9-1.3.2-41.9,14.6-45.6,15.4-5.3,1.1-29.2,9.8-35.2,11.2-.8.2-10.5,3.1-10.6,3.2-3.5.5-3.1.6-4.2.3-.6,0-1.2-.3-1.7-.6-2.2-2.5-2-19.3-2.6-23.5,0-.1-1.4-45.1-1.4-45.6,0-.1-1.1-25.9-.7-27.8.2-.9-1.6-8.7,0-14.9.2-5.1,93.9-7.3,100-9,.6,0,1.2-.1,1.8,0,7.8-.4,6.7.5,7,29.9Zm-3.1-20.5c-.2-4.5.4-6.5-1.7-6.8-1.6,0-3.1,0-4.7.2-4.9,0-9.9.2-14.8.7-8.2.9-4.9-.2-28.7,1.8-6,.5-12.3,1.4-19.3,1.5-.2,0-.5,0-.7,0-28.9,2.7-28.2,2.8-29.2,2.7-2.1.2-3.8,2-3.8,4.2,0,2.1,3,89.9,2.9,91.4.2,2.7.3,6.2,4,5.2.5-.1,1.7-.7,2.5-.9,6.3-1.6,15.3-4.2,15.4-4.2,8.2-2.8,25.6-7.3,26.8-7.7,56-17,50.4-12.3,50.6-17.8,0-.6.9-64.3.6-70.3h0Z" fill="#fff"/><path id="i" d="m9.8,122.9c-6.8-1.3-5.1-2.9-5.8-10.6-1.3-14.6-.9-31.9-1.2-39.7-.2-1.1-.3-2.3-.1-3.4.1-.7-.1-.8-.2-4,0-2,0-4-.3-6,0-1.2.1-1.3-.1-3.6,0-.1-.3-7.6-.3-7.8.2-8.4-.4-35-.4-35,.3-2.6,2.7-2.9,3.6-3.2-1.6,2.8-.1,12.5,0,15.6,1,34.5,1.6,50.5,1.6,50.6.3,11.3.7,44.9,3.2,47.2Z" fill="#fff"/><path id="j" d="m216.3,94.9c1.7,3.7.6,1.4,2.7,8.2,0,0-4.9,2.6-6,3-.5.2.5.5-4.1-8.9-.2-.3,0-.2,2.7-1.9,4.6-2.8,3.4-3.5,4.8-.4Z" fill="#fddd8d"/><path id="k" d="m214.2,91.2c0,.2.3.4.2.6,0,0-2.9,2-6.3,4-.9-.7-2.6-4.7-5-8.4,0-.2,0-.2,0-.3,3.1-1.8,1.3-1.3,5.9-3.2.3-.1.5,0,1.3,1.6.7,1.3,1.5,1.4,3.7,5.7Z" fill="#fddd8d"/><path id="l" d="m208.6,82.6c0,0-.1.1-.2.1-1.9.7-3.6,1.6-5.2,2.8-.9.5-.9.6-1.3,0-3-4.3-6.1-5.2-5.5-5.6,3.1-2.2,3.8-2.9,5.4-3,.5,0,.9-.3,1.4,0,2.2,1.4,4.1,3.3,5.4,5.6h0Z" fill="#fddd8d"/><path id="m" d="m205.3,93.7c.4.9.9,1.8,1.5,2.6-2.4.9-.7-.2-4.4,2.3-.9.6-1.9,1.1-2.9,1.6-.2.1,0,.1-2-2.8-.6-.7-1.2-1.5-1.6-2.3-1.2-2.1-1.6-1.9-1.1-2.3,2-1.4,3-2.8,5.7-4,1.2-.5,1.3-1.1,1.6-.6,0,.1,3,4.9,3.2,5.5Z" fill="#fddd8d"/><path id="n" d="m200.8,86.3c1,1.2-1.4.7-4.6,3.5-.8.7-1.6,1.3-2.4,1.8-.9.6-1-.9-5.6-6.1-.3-.3-.5-.4-.2-.6,0,0,1.8-1.3,2.1-1.5.9-.7,1.9-1.3,3-1.6,1.7-.8,2-1.2,2.1-1.1.6.6,1.3,1.1,2,1.6,1.4,1.1,2.6,2.4,3.6,3.9h0Z" fill="#fddd8d"/><path id="o" d="m200.6,75.7c-1.9.7-3.7,1.8-5.2,3.2-.8.6,0,0-5.7-3,0,0-.1,0-.2-.2,1-.5,2-1,3-1.3,3-1,7.9,1.2,8,1.3Z" fill="#fddd8d"/><path id="p" d="m197.1,99.1c1.1,1.6,1.2,1.5.7,1.8-2,1-4.8,3.4-6,3.8-.2.4-.7.4-1.1.7-.2,0-.3.2-.5.2,0,0-.2-.1-.2-.2-.8-1.5-1.6-3-2.6-4.4-1.9-3.6-2.4-3.5-1.8-3.8,1.9-1,5.4-1.9,7.4-3.5.4-.3.2-.3,4,5.4Z" fill="#fddd8d"/><path id="q" d="m193.7,79.8c.6.5-2.4,1-4.2,2.4-4.6,3.5-1,1.9-7-2.1-.4-.3-.2-.1,1.7-1.4,1.2-1,2.6-1.7,4.1-2.2,1.7.4,4.6,2.8,5.4,3.4Z" fill="#fddd8d"/><path id="r" d="m190.5,53.6c1.3,0,2.1-1,2,.3,0,.7-.1,1.4-.4,2-2.3,4.2-3-.2-3.9,5.6-.3.8-1.1,1.4-2,1.3-.3,0-.7.1-.8.5,0,0,0,0,0,0-.5,2.2-1.4,1.3-3,2-.2,0-.4,0-.5-.2-.1-.5-1.2-.3-1.6,0-1,.8-1.5.9-2.2.6-.9-.4-1.9-.2-2.5.5-.5.7-1,1.3-1.6,1.9-1.2.9-2.9.6-3.8-.5,0,0,0,0,0,0-.2-.4-.7-.6-1.1-.4-.1,0-.2.1-.3.2-1.2,1.3-1.5,1.7-2,1.3-1.2-.7-2-1.9-2.4-3.2,0-.2-.2-.5-.5-.5-.7,0-.5-.1-1.6,1.1-.2.3-.2.3-.5,0-1.2-.8-2-2.1-1.4-3.4.6-1.4,0-5.8-1.8-3.2-.4.5-.7.6-1.1,0-2.9-3.3-.3-3.9-.3-8.7,0-1.7-.2-3.3-.7-4.9-.7-1.7-4.3-3.9-6.2-2.9-.3.1-.7.2-1,.2-.6.4-2.1-.5-3.3-.3-.2,0-.3-.2-.5,0-.1-.3-.4,0-.5-.2-1-.4-.8-.8-.8-1.1,0-1.6,1.4-1.7,1.4-3.2,0-1.9-1.4-3,.8-4.8,2.5-2-1-3.6.6-5.4,0,0,.2,0,.2,0,0,.4.3.5.5.8,3,4.8,4.5,3.2,5.7,5.4.8,2,2.3,3.6,4.3,4.6.8.5,1,1.1,2,2.3,2.3,3,6.5,3.7,8.9,5.5,4.5,3.5,6,2.4,7.5,3.4,3.1,2.1,3.3,2.2,4.8,2.5,3.6.7,4.3,1,5.6.9.6,0,3.2-.2,4.1-.2Z" fill="#fddd8d"/><path id="s" d="m192,92.4c.6.7-2.6,1.9-6.9,3.6-.2,0-.5.5-.9,0-.9-1.2-2-2.2-3.2-2.9-.9-.5-1.7-1.2-2.4-1.9-.2-.2,0,0,3.3-1.9.8-.4,3.7-2.6,4.9-3.3,1.7,1.4,2.1,2.7,3.4,4.1.7.7,1.2,1.5,1.8,2.3Z" fill="#fddd8d"/><path id="t" d="m191.6,70.9c.6,2.8,2.2,1.4-2.4,3.3-.6.3-.5-.8-1.1-1.7-.4-.7.4-.4,1.7-1.2,1.4-.8,1.6-1,1.7-.4Z" fill="#fddd8d"/><path id="u" d="m190.7,67.3c.7,2.3,1.2,1.6-.9,2.5-.6.5-1.3.8-2.1.9-.1,0-.2,0-.3-.5-.5-1.9-1.5-2.1-.9-2.3,1.1-.5,3.9-1.9,4.2-.6Z" fill="#fddd8d"/><path id="v" d="m187.8,74.8c0,0,0,.1,0,.2-.2,0-1.2.6-1.7.8-1.9.7-2.1,1.6-2.3,1.2-.3-.4-.5-.9-.6-1.4,0-.4-.2-.7-.4-1-.4-.8.3-.2,3.2-1.7.1,0,.3,0,.4-.2.4-.2.3-.2.6.2.2.7.5,1.3.8,1.9h0Z" fill="#fddd8d"/><path id="w" d="m186.1,71.5c-4.6,1.9-4.4,1.7-4.9.9-.9-1.8-3.1-1,.7-2.7.8,0,1.6-.3,2.4-.7.7-.4.8-.4,1.2.3.3.5,1.2,2,.5,2.2Z" fill="#fddd8d"/><path id="x" d="m184.6,67.3c-.7.4-1.5.8-2.3.9-.7,0-1.3.3-1.9.6-1.4.5-.9,1-2.9,1.4-2.3.4-4.4,2.2-6,2.8-1.6.4-3.1,1.3-4.1,2.6-1.6,1.9-1.5,1.1-2.9,2.5-2.5,2.4-2.5,3.4-3.7,5.5-.5.9-.6-.9-1.9-2.5-1.9-2.4-.9-4.5-4.1-7-1.6-1.3-10.4,1.3-12.2-.6-4.9-5.1-4.6-10.4-5-13.2-.5-1.9-.8-3.9-.9-5.8.5-5,1.5-5,.9-9.3-.2-1.5-1.1-1.3,1.9-.8,3.2.6,3.2.4,3,.7-3.1,5.1,3.6,6.5,4.5,3.3.4-1.4,1.7-4,3.2-4.1.9,0,.8-.9,4.2.5.9.8,1.5,1.9,1.8,3.1.2,1.3.2,2.7.1,4-.2,3.1-1.9,6.5-4.9,7-1.2.2-.6,2.3,1.5,1.1,2.5-1.7,2.4-2.2,2.5-1.7.5,1.9,2.1,4,3.9,2.7.3-.2.1.9,0,1.4-1.2,3.3,2.4,6.8,4,4.9.2-.2.2-.1.3,0,.6,1,1.3,1.8,2.2,2.5.6.5,1.4.7,2.1.5.6,0,1.2-1,1.5-1.1.9.7,2.1,1,3.2.9,3.4-.4,3.4-3.1,4.4-2.8.8.2,1.7.2,2.6.1,1-.2,1-1.2,1.7-.6.6.5,1.9-.2,3.1-.4.3,0,.7.8.3.9Zm-31.2-15.1c1.1-1.6.5-7.3-3.3-5.4-3.3,1.7-1.2,3.8-.8,2.4.3-1,3.1-3.1,3.3.8,0,.4-.2.5-.6.4-.4-.2-.9-.2-1.3-.2-.8-.2-1.5.3-2.3.4-1.9.4-2.7,7.9-2.6,9.8,0,1.3.9,1.7,2,2,2.1.4,2.1-2.8,2.3-4,0-.3.3-.6.6-.5,3.4-.4,2.6-5.4,2.7-5.6Z" fill="#fff"/><path id="y" d="m185.9,85c-.4.4-2.8,1.8-3.4,2.3-1.3.9-2.7,1.7-4.1,2.3-1.1.6-.4.5-3.6-1.9-1.9-1.5-2-1.4-1.8-1.6,3-2.4,4.2-3.7,6.7-5,.9-.5,1.4-.7,1.6-.5,1.8,1.2,3.3,2.7,4.5,4.4h0Z" fill="#fddd8d"/><path id="z" d="m183.2,97c-.2.3-4.5,2.8-4.6,2.9-1.4.3-2.5,1.5-4.7,1.7-.5,0-2-1.5-2.6-2.5-.2-.3-2.8-3.1-3-3.2-.6-.5-.3.3,6.5-3.3.9-.6.8-.3,2.2-.9.4-.2.3.2,2.1,1.9.8.8,2.2.8,4.1,3.4Z" fill="#fddd8d"/><path id="aa" d="m182.1,76.1c.7,2.4,2.2,1-3,3.7-.3.2-.3,0-1.1-1.9-.4-.9-.7-1.1-.4-1.4.7-.5,1.6-.9,2.4-1.2.8-.3,1.3-.9,1.5-.5.2.4.4.8.5,1.2Z" fill="#fddd8d"/><path id="ab" d="m180.6,73.5c.1.2-1,.6-1.2.7-4.6,1.9-1.1,2.1-4.9-.6-.5-.4-.4-.5,0-.7,1.3-.8,2.7-1.4,4.2-1.7.8.8.9.5,2,2.2Z" fill="#fddd8d"/><path id="ac" d="m176.8,78.3c1.1,2.3,1.2,2.3.9,2.5-5.7,4-2.6,3.2-4.8.6-.3-.4-.6-.9-.8-1.4.3-.7,4.2-2.3,4.2-2.3.2-.1.3,0,.6.6Z" fill="#fddd8d"/><path id="ad" d="m175.2,89.7c.8.6,1.2.8.8,1-3.6,1.3-6.8,3.7-9.3,3.9-1.3-.7-2.6-1.4-3.9-2.2-2.1-1.3-3.4-1.2-2.8-1.4,10.4-4,5.2-2.2,10.3-3.3,1.8-.4.1-1.9,4.9,2.1Z" fill="#fddd8d"/><path id="ae" d="m175.6,76.4c-.5.3-1.1.6-1.7.8-2.9,1.1-2.5,2-3.1,1.5-2.3-2-3.4-1.1-2.4-2.3.5-.7,1.2-1.2,2-1.5,2.6-1,2.5-1.2,2.8-.9,0,0,2.2,2.2,2.4,2.5Z" fill="#fddd8d"/><path id="af" d="m171.9,101.8c.6.6-1.4-.2-5.4,1.8-.9.4-1.2.7-1.5.5-1.7-1.1-2.3-.6-5-2.4-.6-.4-.4-.3-1.2-.8,1.5-1.5,5.4-4.6,7.6-5,1.3.9,2.4,2,3.5,3.2.9.8.9,1.5,2.1,2.6Z" fill="#fddd8d"/><path id="ag" d="m173,84.4c-.8.6-1.7,1.2-2.7,1.6-.6.2-1.3.4-1.9.6-.3.1-.2-.2-1-1.4-.6-.9-.7-.8-.5-1,1.6-1.5,1.4-.7,3.6-2.9.5-.5.4-.6.7,0,.7,1,1.3,2.1,1.8,3.2h0Z" fill="#fddd8d"/><path id="ah" d="m170.1,79.8c-.6,1.1-2.6,2.1-4.1,3.5-.2.1-.3.2-.4,0-.5-.4-1-.8-1.6-1.2-.5-.4-1.1-.3-.6-.9.5-.8,1.1-1.4,1.8-2,0,0,.2-.1.2-.2.2-.7,1.1-.8,1.2-1,.5-.5.7.1,2,.7.5.3,1,.6,1.5,1.1Z" fill="#fddd8d"/><path id="ai" d="m166.4,86.2c.4.7.5.5-2.1,1.5-.2-.5.4-1,1.3-2.2.3-.3.5,0,.8.7Z" fill="#fddd8d"/><path id="aj" d="m164.6,94.9c-4.9-2.9-5.5-3.8-8.6-1.5-1.8,1.4-4,1.9-5.4,3.3-1.2,1.2-2.3,2.5-3.2,3.9,4-.3,10.3,0,10.4-.2,1.7-1.7,3.5-3.2,5.4-4.6,1.2-.6,1.8-.7,1.4-.9Z" fill="#fddd8d"/><path id="ak" d="m164.5,84.2c.2.2.4.2-.5,1.3-1.1,1.3-.8,2.8-1.6,3-2.2.7-2.3,1-2.3.2,0-1.5.5-2.9,1.4-4.1,1.4-1.8.6-2.6,3.1-.5Z" fill="#fddd8d"/><path id="al" d="m90.2,116.2c.3,1.4-3.2,2.1-4.6,1.6-.3,0-.5-1-.7-1.8-1-4.2-2.6-5.1,1.7-6.4.7-.1,1.4,0,2,.2.6,2.1,1.2,4.2,1.6,6.4Z" fill="#fff"/><path id="am" d="m93.4,129.4c0,.4-1.4.6-2.5,0-.7-.3-2.8-1.4-3.1-2.1-.4-1.3-2.1-7.7-2.2-8.4-.1-.5.6-.6,1.4-.6,1.9,0,3.4-1.5,3.6-.9.4,2,.7,1.8,2.8,12Z" fill="#fff"/><path id="an" d="m149.2,96c0,0,0,.1-.1.2-1.1,1.3-2,2.6-2.9,4-.4.4,0,.4-1.5-1.3-.2-.2-.2-.3.7-1.6,2.1-3,.7-3.4,2.8-2.6.5.2.6.5,1.1,1.4Z" fill="#fddd8d"/><path id="ao" d="m145.1,94c-.2,1.5-.2,1.1-.9,2.2-.2.3-.8,1.2-1.6,2.2-5.9,7.5-3,3.8-5.7,6.3-1,.8-2.1,1.5-3.3,2.1-.9.3-1.8.5-2.8.7-.7.1-1.1-.3-1.7-.6-.7-.4-1.3-1.1-1.7-1.9-.3-.6-.7-1.1-1-1.7-.4-.8-2.5-1.7-2.8-2.2-2.2-3.3-.6-6.8,1.6-10.1.6-.9.6-1.2.9-.9,1.4,1.4.7.3-1.1,4.1-.8,1.3-1.1,2.8-.9,4.3,0,.7.7,1.1,1.2,1.4,1.4.7,2.4-.2,4.9-1.9,5-4.1,8.6-6.1,9.6-9.6.4-.8.3-1.7-.3-2.3-.3-.3-.2-.5,0-1.5.1-.7.9-.3,1.4.3,1,1.3.5,1.2,1.1,3,.3.7,1.1.8,1.6,2.1.7,2,1.8.9,1.3,4Z" fill="#fddd8d"/><path id="ap" d="m140.9,79.8c1.1,1.2,1.1,1.3.8,1.6-1.6,1.7-2.1.5-10-3.3-.9-.8-1.8-.7-3.5-1.2-2.1-.7-2.5-1.1-3-.6-1.1.9,1.3,1.5,1.6,1.6-.6.2-2.3.6-2,1.1.5.9,1-.2,4.3,0,1.6,0,1.6.1,4.7,1.7,3.3,1.6,3.9,1.8,3.3,2.9-.4.7-2.5.6-3.3.4-.5-.1-.9,0-1.6-.2-1.7-.5-3-1-4-.6-1.1.4-1.4-.3-2.1.1-1.4.8,1.3,1.5,2.2,1.2,1.1-.4,3.2.3,4.8,2.1.8.9.7,2.4,1.1,3.2.3.6,1.8,1,.8-2.4-.1-.5-.2-.9-.3-1.4,0-.3,0-.3.3-.3,3.3,0,2.9-1.2,3.5-1.4,0,.2,0-.1,0,1.2-.1,1.6.7,2.4.4,3.3-.8,2.6-5.3,5-7.6,7-.6.5-.8-3.5-3.4-5.9-.3-.3-2.4-2.6-2.4-2.6-.3-.7-.9-1.3-1.3-2-2.9-6.1-3.3-5.7-2.3-9.1.6-2.2-.9-3.1.6-4.7.8-.9,1.3-2,1.3-3.2,0-1.3.8-2.4,2.1-2.8,2-.5,1.5-3,3.6-3.6,1.9-.6,2.6,1.1,4.2,2,1.5.9,2.7,2,3.8,3.3.3.6.6,1.2.8,1.9.5,1.2.7,1.3.4,1.4-1.5.6-2.2-.3-3.6-1.3-.7-.4-1.4-.9-2-1.5-3.1-3.3-3.8-1.6-2.7-.8,1.1.8,2.6,2.4,3,2.6.9.7,1.7,1.4,2.3,2.3.7.8,1.2,1.8,1.4,2.8-1.1-.6-1.9-1.5-2.5-1.6-1-.2-1.9-.6-2.8-1.2-1.2-.6-2.4-1-3.6-1.3-.9-.3-.9.7-.6,1,.7.4,1.5.8,2.3,1,1.4.4,1.9,1.1,4.2,1.8.8.2.5.4,3.3,2.3.9.7.5.5-.7,1.8-.6.6.4,1.4,1.2.5.2-.3.9-.8,1.2-1s.3,0,2.2,2Z" fill="#fff"/><path id="aq" d="m140.7,73.4c-.3.6-.5,1.2-.6,1.8-.6,2.7-.5,1.3-1.1,1-.3-.2-.6-.6-.5-1-.2-.9-.5-1.8-1-2.6-.5-1.2.6-.1,1.7-1.1,0,0,.2,0,.2,0,.1.2,1.2,1.7,1.3,1.8Z" fill="#fff"/><path id="ar" d="m110.6,4.9c1.7.2,0,73,0,73-.7,5.8,1.3,5-2.6,6.2-.8,0-88,25.5-89.5,25.7-.5,0-4.7,2.4-5.2-1.2,0-.3-.5-7.9-.6-8.9.1-2.8,0-5.6-.2-8.3,0-.2,0-10.4-.3-15.6-.7-13-.2-7-.4-16.1,0-4.9-.5-7.3-.6-9.9-.2-6.3.3-5-.2-13-.1-1-.1-2.1,0-3.1,0,0-.5-6.5-.4-6.8.4-3.6-1-12.6,1-14.4.6-.4,1.4-.6,2.1-.7.7,0,2.1-.3,2.9-.4,20.4-2.3,69.5-5.3,69.6-5.3,10.3-1.1,24-1.3,24.6-1.3Zm-27,74.4c0-2.8,0-5.5-.3-8.3,0-1.8.2-2.6-1.1-3-.3,0-12.2,1.3-12.9,2.1-.6.7-.7.8-.6,1.9.8,15.7-2.5,14.6,12.1,11.2,3.4-.8,2.8-.4,2.8-4Zm-5.8-21.1c3.7-.7,4.8-.6,4.8-1.9-.2-8.2-.3-8.5-.6-11.5,0-1-.4-1.4-1.8-1.4,0,0-5.8.5-6.2.5-7.8.9-6.2-.6-6.1,10.1,0,3.5-.2,4.8.9,5.1s8.2-.6,8.9-.8Zm-3.6-26.5c6.2-.8,7.8-.6,7.7-1.8,0-.9.4,2.2-.6-12,0-1.3-1-1-6.8-.6-4.8.3-6.8-.1-7.5,1.1-.3.8-.4,1.7-.2,2.5.2,8.7.3,8.3.3,8.3,0,3.7-.4,3.5,7.1,2.5h0Zm-39.4,64.1c.7-.2,1-.5.5-10.8-.3-5.2,0-5.5-3.2-5.2-2.5.2-4.9.6-7.4,1.1-4.6.9-5.2.5-5.5,1.6-.4,1.6.2,3,0,5,0,.7,0,1.4,0,2.1,0,.2,0,.4,0,.5.3,8.1.3,7.9.7,8.1,2.2,1,1.6.4,5.9-.3.2,0,8.6-2.1,9-2.2h0Zm-1.4-29.1c.6-.2,1-.7.9-1.3,0-4.3-.2-8.7-.7-13-.3-1.6-1.1-1.4-3.3-1.2-3.7.2-7.4.6-11,1.2-1.9.4-1.4,2-1.2,8.7.2,6.2-.2,6.9,1.1,7.2,1.5.4,2.4-.3,4.7-.2,3.1-.3,6.3-.7,9.4-1.4Zm-1.2-29c1.6,0,1-3.1.8-5.2-.8-11.8,1-10.5-5.5-10.2-2.1,0-7.2.5-8.3.7-3.2.4-2.7.3-2.4,7.5.2,8.2.2,8.4,1,8.6,4,0,8-.2,11.9-.7.8-.2,1.7-.4,2.5-.5h0Z" fill="#fff"/><path id="as" d="m82.6,80.9c0,.7.9.6-7.7,2.5-4.8,1-4.5.9-4.6-1-.4-8.4-.2-8.4-.4-10.2-.2-1.7,1.5-1,5.1-1.9,1.1-.2,5.4-.8,6.6-1.1.5,0,.5,0,.6.4.2,2.2.4,8.4.5,11.2Z" fill="#fddd8d"/><path id="at" d="m34.1,86.3c0,8.3.6,8.2-.2,8.5-.3.1-10.7,2.7-12.6,2.5-.2,0-.3-.3-.4-.5,0,0-.3-3.6-.4-9.8,0-3.5-.6-3.9,1-4,.1,0,11.5-1.9,11.7-1.9.8-.2.6-.5.9,5.2Z" fill="#fff"/><path id="au" d="m33,62.1c0,3.8.2,3.3-.4,3.4-10.1,1.4-10.3,1.2-11.4,1.4-1.5.3-1.5.2-1.5-.1,0-5-.9-12.9,0-13,.9-.1,12.3-1.5,12.7-.9.4.9.5,1.9.4,2.9,0,.2.3,3.5.3,6.3Zm-2.4-5.6c-1-1.9-1.7.1-2.4.6-.3.3-.6.6-.9,1-2.2,2.3-1.9,2.2-2.2,1.6-1-2.2-.9-3-1.7-3-1.4,0-1.7.8-1.2,2,1.7,4.3,1.7,4.7,2.3,4.5.9.5,5.3-5,5.7-5.7.3-.4.5-.7.2-1h0Z" fill="#fddd8d"/><path id="av" d="m184.5,58.1c0,1.1-1.1,1.5-1.7,2.2-.8,1.1-2.3,1.4-3.4.6,0,0,0,0-.1,0,0,0,0,0-.1,0-.1,0-.3,0-.4.1-.7.9-2,1.1-3,.5-.9-.6-.7-1-.9-.6-.3.7-.7,1.3-1.2,1.8-1.9,1.7-4.8-.4-3.8-1.4.7-.6,2,2.1,3.4-.3.8-1.5,1-2.2,1.6-2.3.8,0,.9.1,1.2,1,.1.5.7.8,1.2.6.8-.2,1.2-1.9,2.4-1.1.7.5.6.9,1.4.6.5-.2.9-.6,1.2-1,1.1-.8,1.5-2,2.3-.7Z" fill="#1d212d"/><path id="aw" d="m143.3,61.5c.3.4.3.9,0,1.2-1.5,1.3-1.8,1.8-2.9,1.8-.2,0-1-.2-.9-.7.1-1,.7.1,2.1-1.2.7-.7,1.3-1.4,1.7-1.1Z" fill="#1d212d"/><path id="ax" d="m112.1,10.7c.7,16.6-.3,48.9-.5,70.4,0,5.5,5.3.4-50.7,17.7-8.7,2.7-16.7,4.2-26.8,7.7-1.8.6-2.5.5-4.2,1.2-1.7.7-11.2,3.1-11.2,3.1-.9.2-2.1.7-2.5.9-3.5,1-3.8-1.9-4-5.2,0-.1-1.5-36.6-1.3-44.4,0-2.5-.4-9.5-.5-10.2-.3-2.7-.3-5.4,0-8,0-1.5,0,1.6-.4-8.9-.7-15.6,0-7.9-.6-20,0-2.1,1.7-3.9,3.8-4.2,1,0,.3,0,29.2-2.7.2,0,.4,0,.7,0,7,0,13.3-1,19.3-1.5,23.8-2,20.5-.9,28.7-1.8,4.9-.6,9.9-.8,14.8-.7,1.6-.2,3.1-.2,4.7-.2,2.1.2,1.5,2.3,1.7,6.8Zm-1.5,67.2s1.7-72.9,0-73c-5.8-.7-74.5,4.7-74.7,4.7-4.2.3-6.3.9-7.4.7-1.4-.2-14.9,1.6-15,1.6-.8,0-1.5.3-2.1.7-2,1.8-.6,10.5-1,14.4,0,.3.4,6.7.4,6.8,0,1,0,2.1,0,3.1.5,8,0,6.7.2,13,0,2.6.5,5,.6,9.9,0,.1.7,31.6.7,31.8.7,8.5.2,14.1.9,17.3.4,3.5,4.4,1.3,5.2,1.2.6,0,89.4-25.6,89.5-25.7,3.9-1.3,2-.4,2.6-6.2h0Z" fill="#1d212d"/><path id="ay" d="m103,67.8c0,.7-.4,1.4-1.1,1.4,0,0,0,0,0,0-3.2.2-8.7,1-13.4,1.5-.3,0-.6-.3-.6-.7,0-1.1.3-.9,4.5-1.5,5.3-.7,10.2-1.6,10.6-.8Z" fill="#1d212d"/><path id="az" d="m90.9,75.8c9-1.2,10.4-1.8,10-.4-.4,1.1-.6.7-4,1.3-1.8.3-6.6.8-7.4,1.1-1.2.4-2.6-1.4,1.4-2Z" fill="#1d212d"/><path id="ba" d="m98.3,71.5c.7.4,0,1.5-.5,1.6-3.3.4-4.7.3-8.9,1-.5,0-.9-.3-.9-.8,0-.4.3-.8.7-.9.9,0,8.7-1.3,9.6-.9Z" fill="#1d212d"/><path id="bb" d="m83.4,71.1c.2,2.7.3,5.5.3,8.3,0,3.5.5,3.2-2.8,4-14.6,3.5-11.3,4.5-12.1-11.2,0-1.1,0-1.3.6-1.9.7-.8,12.6-2.2,12.9-2.1,1.3.4,1,1.2,1.1,3Zm-8.5,12.3c8.6-1.8,7.7-1.7,7.7-2.5,0-2.8-.3-9-.5-11.2,0-.5-.1-.5-.6-.4-1.2.3-5.5.8-6.6,1.1-3.6.8-5.3.2-5.1,1.9.2,1.8,0,1.8.4,10.2.1,1.9-.2,2,4.6,1Z" fill="#1d212d"/><path id="bc" d="m82.6,56.3c0,1.3-1.1,1.3-4.8,1.9-.7.1-7.7,1.1-8.9.8-1.1-.3-.9-1.6-.9-5.1-.2-10.7-1.7-9.1,6.1-10.1.4,0,6.2-.5,6.2-.5,1.5,0,1.7.5,1.8,1.4.5,4.7.4,9,.5,11.5Zm-1.2-.3c0-2.8-.2-9.7-.3-10.3-.3-1.8-2.1-.9-11.5,0-1.4.1-.3,1.5-.4,7.5,0,1.1,0,4,.1,4.5,0,.3.4.2.6.2,4.5-.8,11.6-.9,11.6-1.8h0Z" fill="#1d212d"/><path id="bd" d="m80.9,73.9c-.1,1.1-5.8,7-6.3,6.9-1.6-.2-1.4,0-2.9-5.6-.2-.7,1.8-2,2.3-.6,1.3,3.7.5,3,1.7,2.1.1,0,3.4-3.6,3.4-3.7,0-.9,1.9-.4,1.8.9Z" fill="#1d212d"/><path id="be" d="m40.8,81.2c11.9-2.3,14.7-3.2,14.4-1.6-.2,1.1-.4.8-4.8,1.5-7.3,1.2-2.9.8-9.7,1.7-1,0-.9-1.5,0-1.7Z" fill="#1d212d"/><path id="bf" d="m53.2,58.9c.3,0,.6.3.6.6,0,0,0,.1,0,.2-.3,1.1-.8,1-2.1,1.2h0c-5.8,1-9.3,1.2-10.6,1.6-.2,0-.8,0-.9-.3-.6-2.3,1.2-1.5,3-1.9.7-.2,8.8-1.3,10-1.4Z" fill="#1d212d"/><path id="bg" d="m53.9,87c-.1.4-.2,1.2-1.1,1.2,0,0-10.4,2-11,2.3-.5.2-1,0-1.1-.9-.1-1.3-.5-.8,10.8-3.1,1.3-.3,2.5-.6,2.5.5Z" fill="#1d212d"/><path id="bh" d="m51.2,83.6c.2,1.7-1.3,1-8.2,2.4-.6.1-1.2.3-1.9.4-1,.2-1.2-1.6-.2-1.8,7.1-1.3,10-2.2,10.2-1Z" fill="#1d212d"/><path id="bi" d="m35.3,85.1c.5,10.4.2,10.6-.5,10.8-.3,0-8.7,2.2-9,2.2-4.3.7-3.7,1.3-5.9.3-.5-.2-.6,0-.7-8.1,0-.2,0-.4,0-.5,0-.7,0-1.4,0-2.1.2-2-.4-3.4,0-5,.3-1.1.9-.8,5.5-1.6,2.4-.6,4.9-.9,7.4-1.1,3.2-.2,2.9,0,3.2,5.2Zm-1.4,9.7c.8-.3.3-.1.2-8.5-.4-5.7-.2-5.4-.9-5.2-.8,0-10.8,1.9-11.7,1.9-1.7,0-1.1.4-1,4,0,6.2.4,9.8.4,9.8.1.2.3.4.4.5,1.8.2,12.2-2.4,12.6-2.5Z" fill="#1d212d"/><path id="bj" d="m34.3,65.5c0,.6-.4,1.1-.9,1.3-3.1.6-6.2,1.1-9.4,1.4-2.3,0-3.2.7-4.7.2-1.3-.4-.9-1.1-1.1-7.2-.2-6.6-.7-8.2,1.2-8.7,3.6-.6,7.3-1,11-1.2,1.7-.1,2.9-.4,3.2,1,.7,2.9.7,13.1.7,13.3Zm-1.7,0c.6,0,.4.4.4-3.4,0-2.8-.3-6.1-.3-6.3.1-1,0-2-.4-2.9-.4-.6-11.8.7-12.7.9-.9.1,0,8,0,13,0,.4,0,.5,1.5.1,1.3-.3-.9.2,11.4-1.4h0Z" fill="#1d212d"/><path id="bk" d="m30.6,56.6c.2.3,0,.5-.2,1-.4.7-4.9,6.2-5.7,5.7-.7.2-.7-.1-2.3-4.5-.5-1.2-.2-2,1.2-2,.8,0,.6.8,1.7,3,.3.6,0,.7,2.2-1.6.3-.4.6-.7.9-1,.6-.5,1.4-2.4,2.4-.6Z" fill="#1d212d"/><path id="bl" d="m77.2,161.2c4.3,2.5,4.5,1.6,2.6,3.1-12.1,8.7-15.3,9-18.8,12.4-3,1.5-7.6,3.4-10.9,6.9-.6.7-.5.2-2.3-1.2-9.4-8.1-10-6.7-18.9-12.9-2.5-1.3-2.1-2.2-6.7-3.9-2.7-1-10.7-6.8-12.9-8-4.1-2.4-4.6-1.3-1.3-3.3,3.2-1.9,6.5-3.5,9.9-4.8,2.5-.9,6-3.5,8.1-4.1,7.8-2.5,4.4-1.8,7-2.8,1.5-.6,1.1-.7,3.3-1.5.4-.2,1.3-.5,1.7-.7,6.5,2.7,5.5,3.8,13.5,6.8,1.7.6,8.3,5.2,10.7,6,1.8.8,3.4,1.7,5,2.9,2.1,1.6,8.6,4.8,9.9,5.6Z" fill="#fff"/><path id="bm" d="m55.6,162.3c.4,0-.1,0-11.2,8.6-3.9,3-1.6,2.1-5.5-.1-.5-.3-1-.8-1.4-1-.5-.2-1-.5-1.5-.9-.9-.6-3.8-1.9-3.1-2.2,0,0,11.4-7.5,13.9-8.9.7-.4,1,.3,3.3,1.4.8.4,1.6,1,2.4,1.4,1.1.5,2.1,1.1,3.1,1.8h0Z" fill="#fddd8d"/><path id="bn" d="m45.7,182.2c-2.6-.9-5.1-2-7.5-3.3-.9-.7-9.5-3.8-11.7-5.1-1.1-.8-2.2-1.4-3.4-1.9-.8-.4-1.7-.7-2.6-.8-.4,0-5.7-3.2-8.2-4.2-3.9-1.6-4.6-2.9-8-3.8-1-.2.6-.6,1.5-1.9.8-1,1.6-1.9,2.5-2.7.2-.3.2-.4,2.9,1.5,8.1,5.7,9,5.3,13.6,7.9,2.6,2,5.3,3.8,8,5.5,8.9,4.9,6.2,3.7,8.6,5.4,1.5,1,2.9,2.1,4.2,3.4Z" fill="#fff"/><path id="bo" d="m113.7,128.8c.4.2,1.7.8,2,.9-.4.3-11,5.2-14.3,6.9-.3.2,0,0-.5-1.7-.3-1.2,1.5-.9,7.7-4.5.5-.3.7-.9.5-1.4,0-.2-.2-.3-.4-.4-.9-.6-12.5-6.4-13.3-5.7-.3.1-.5.3-.8.3-.3.2-.7.3-1.1.2-.7-.1-.8,0-.8-.8,0-.2-.3-.5,0-.7,5.4-2.3,4.8-.5,21.1,6.8Z" fill="#fff"/><path id="bp" d="m105.3,128c2.8,1.5,2.4,1.2,2.6,1.5-2,1.2-4.1,2.3-6.3,3.3-.3,0-.9.8-1,.2-.9-4.6-2.4-5.6-4.1-7.9-.2-.4-.6-.7-1-.9-.2-.1,0-.2,0-.2.7-.4,8.4,3.6,9,3.9.2.1.5.1.7.2Z" fill="#fff"/><path id="bq" d="m76.5,145.6c2.3,2.3,3.6,2.7,3.3,2.9-1.9.9-1.1.9-5.1-1.5-9.2-5.8-14.9-10-15.7-10s5-2.1,6.5-3c.5-.2,1-.4,1.5-.6,7.8-3.4,11.5-5.7,10.3-4.5-1.1,1.1-.2,2-1.5,2.5-.3,0-10,4.6-11,4.8-.7.2-1.1,1-.3,1.4,1.3.7,9.6,5.6,12,8Z" fill="#fff"/><path id="br" d="m61.3,139.4c1.5,1,1.4.9,1.3,1-1,.4-1.6.7-1.6.5.1-.7-.4-1.8.3-1.5Z" fill="#fff"/><path id="bs" d="m57,140.4c.1-5,3.9-1.4,2.5,1-.3.5-1.1.9-1.5.4-.4-.4-.7-.9-.9-1.4Z" fill="#fff"/><path id="bt" d="m76.4,132.2c.2,0,.5.4.2.8-1,.7-1.7,1.9-1.8,3.1,0,2.8.7,2.6.3,3.6-.9,1.9-.2,3-.8,2.6-9.6-6.3-1.2-.8-8.3-5.2-.5-.3,8.5-4,10.5-4.9Z" fill="#fff"/><path id="bu" d="m79.9,119.7c0,1.1,0,1.8-.5,1.7-.3.2-20.9,7.8-23.7,9.6-3.1,1.2-3.7,1.6-4.7,1.1-.1,0-4.8-1.2-5.8-2.2-1.5-1.3-13.2-4.2-14.4-7.8,0-.2-.4-.4-.2-.7.1-.2.4-.2.7-.3s.5-.3.7-.2c.3.1.2.9,1.6,2.1,1.1.9,14.4,6,14.9,6.3,1.3.8,2.8,1,4.3.6,1.3-.5,25.5-10.1,25.5-10.1,1.8-.7,1.6-.4,1.7-.1Z" fill="#fff"/><path id="bv" d="m77.7,118.9c-1.2.6-23.4,9.2-23.6,9.2-3.3,1.5-.7,2-13.2-3.2-2.2-.9-6.1-2.1-7.1-3.4-.4-.5-1-1.2-.5-1.2.1,0,23.8-8.8,23.9-9,.4-.4.1,1.3,1.6,2.3,3,2,18.6,5.2,18.8,5.3Z" fill="#fff"/><path id="bw" d="m232.1,194.9c.1.9.3.5-3.4,1-5.6.8-3.8,1.2-4-2.6,0-11.3-.4-11.3,0-11.3,1.5,0,1-.3,6.6-1.3.9-.2,0,2.5.1,2.9,0,.3.2,8.6.6,11.3Z" fill="#fddd8d"/><path id="bx" d="m231.8,177.2c0,.5,0,1-.1,1.6,0,.7-6.8,2.1-7,2.1-.7,0-.4-.2-.8-2.5-.5-3.2.2-3.1-1.3-10-.2-1-.4-1.1-.1-1.2,1-.3,2-.9,3.1-1.1,2-.4.9.1,4.1-1.8.9-.6.9-.6,1,.2.2,2.8.4,2.6.6,4.3.3,3.9,0,1.5.5,8.5Z" fill="#fddd8d"/><path id="by" d="m230.3,161.7c.1.6.1.6-.5.9-1.2.7-2.6,1.9-3.8,2-.7,0-.8.2-3.5,1.2-.6.2-.4.5-2-6.3-.6-1.5-1-3-1.1-4.5.7-4.4-2.9-2.2,5.7-6.4,4.4-2.1,1.7-2.9,5.2,13.1Z" fill="#fddd8d"/><path id="bz" d="m227.4,145.7c.2.7-2.3,1-3.6,2-.8.6-1,.2-3.9,1.9-1.4.8-.4.4-1.2-4.9-.4-2.7-.7-5.5-.7-8.3,0-.4,0-.5,2.6-1.3,3.8-1.1,3.5-2,3.7-1.3,2.4,7.8.4,1.5,3.2,11.9Z" fill="#fddd8d"/><path id="ca" d="m223.3,128.7c.6,3.5.9,3.2.2,3.6-.8.5-1.7,1-2.6,1.2-3.4.6-2.9,1.8-3.1,0,0-.7-1.2-5.9-2-12.2-.2-1.2,3.4-1.3,6.4-3.8.2-.2.6,8.4,1.1,11.2Z" fill="#fddd8d"/><path id="cb" d="m223.1,182.5c.2,3.7.2,3.4.1,3.4,0,11,1,10.9-1.9,10.6-2.5-.3-5.1-.2-7.6.3-.6,0-.7,0-.6-.6,0-1.6-.1-3.3-.3-4.9,0-7.6-.7-7.6,0-7.8,5.2-1.5,3.6-1.4,9.4-1.4.9,0,.9,0,.9.4Z" fill="#fddd8d"/><path id="cc" d="m222.6,178.4c.3,2.4.5,2.4.2,2.4-9.7.4-4,0-10.4,1.4,0,0-1.4-12-1.4-12.2,0-.1.4-.1.6-.2,1.3-.1,2.6-.5,3.8-1.1,1.5-.6,3-.9,4.6-1,.8,0,.9-.3,1.1.2,1.2,4.1,1.1,7.7,1.5,10.4Z" fill="#fddd8d"/><path id="cd" d="m222.2,115.6c0,.2,0,.4-.3.5-.9.4-1,1-1.9,1.3-.3.1,0,0-2.2,1-2.2,1-2.2,1.1-2.2.7-.2-.8-.4-1.7-.4-2.5.2-2-1.1-3.7-2.1-9,0-.2.3-.4.5-.4,2.8-1,5.7-3.6,6.2-2.4,1.2,3.5,2,7.1,2.5,10.8h0Z" fill="#fddd8d"/><path id="ce" d="m220.6,165.8c.1.5,0,.6-.4.6-.9,0-1.7.2-2.6.3-1.6.4-3.2.9-4.6,1.6-.4.1-2,.4-2,.4-.2,0-.3,0-.4-.2-.2-2-1.3-2.4-1.3-5.8,0-7.4-1.2-7.5-.3-7.8,1.3-.4,2.6-1,3.8-1.5,1.8-.8,2.7-.2,4.5-1,.2,0,.6-.3.6,0,0,2.4.4,4.7,1.1,7,.4,1,.2.9,1.6,6.5Z" fill="#fddd8d"/><path id="cf" d="m214.3,151.5c-2.2,0-5.9,2.6-6,1.8-.1-1.5-1.9-8.6-1.1-11.2,0-.3,0-.6.2-2.2,0-.3.6-.4.9-.4,6.1-1.1,4.1-1.3,8.3-2.8,0,.2,0,.3,0,.5.2,11.4,3.6,14.2-2.3,14.4Z" fill="#fddd8d"/><path id="cg" d="m216.5,134.6c.2.6-.9.7-2.6,1.6-1.6.8-3.2,1.4-5,1.7-2.8.5-.5,2.1-2.9-12.6-.2-1.3,6.3-2.9,8.2-3.6.2,0,.3,0,.3.2,0,2.5,1.6,9.7,2,12.6Z" fill="#fddd8d"/><path id="ch" d="m214.2,120.2c-1.7,1-1.2.4-3.3,1.2-1,.3-2,.7-3,1.1-1.8.8-1.9,1-1.9.6-.4-3.5-1.2-5.1-1.2-7.4,0-.9-.2-1.9-.5-2.8-.3-1.1-.5-.6,1.6-1.8.8-.5,5.9-3.8,5.9-2.9,0,2.1,1.8,5.3,2,8.6-.1,1.1.8,3.2.4,3.4Z" fill="#fddd8d"/><path id="ci" d="m211.6,197c-1.9.1-2.4,1-6.1,1.5-1.1,0-2.2.2-3.3.3-.8.2-.6-3.7-.6-10.1,0-3.7-.3-3.6,0-3.6.5,0,8.6-1.1,9.1-1.2.6-.1.4-.2.7,3.3,0,.1.3,9.8.2,9.8Z" fill="#fddd8d"/><path id="cj" d="m211.3,106.4c.2.7-.3,0-5.1,2.9-3.7,2.4-1.8,1.9-4-2.5-.6-1.3-1-2.6-1.6-3.9s-1-1.4-.4-1.7c5-2.5,3.2-2.7,7-3.7.6.7,1.3,3,2.5,5,.6,1.2,1.1,2.5,1.5,3.8h0Z" fill="#fddd8d"/><path id="ck" d="m210.6,179.3c.3,3.2.6,3.2-.1,3.4-.2,0,1,0-6.4.9-3.1.4-2.8.5-2.9,0,0-.5-.5-5.7-.5-5.7-.2-2.7-.7-3.9-.7-6.1,0-.3,0-.3,1.4-.4,3-.1,3.4-.6,5.7-.7,3.4,0,2.5-2.5,3.7,8.7Z" fill="#fddd8d"/><path id="cl" d="m207.9,163.8c.2,2.9,2,5.2,1,5.2-1.1,0-2.2.3-3.3.3s-2.1.6-3.8.6c-3.4,0-1.2,1.7-2.8-11.5,0-.7,0-.7.6-.9,2.1-.4,4.1-.8,6.1-1.4,2-.5,1.4-1.5,2,2.1.3,2.1,0,2.9.2,5.6Z" fill="#fddd8d"/><path id="cm" d="m207,153.5c0,.4.1.6-.1.7-2.5.9-5,1.6-7.6,2-.3,0-.4,0-.5-.4-.2-1.9-1.6-6.7-2.1-12.2,0-.4.5-.4,1-.5,3.3-.3,8.4-3.9,8.4-2.5,0,2.4-1.1,2.7,1,12.8Z" fill="#fddd8d"/><path id="cn" d="m205.8,133.5c.1,4.8.4,5,.1,5.2,0,0-6.8,2.8-6.8,2.8-.7.2-1.5.4-2.2.4-.5,0,0-.5-.3-.5-.1-7.7-.4-5.2-.4-9.7,0-2.2-.6-2,0-2.2,8.1-3,8.4-4.3,8.5-3.7.5,2.6.8,5.2,1,7.8h0Z" fill="#fddd8d"/><path id="co" d="m204.8,123.7c-.2.4.4,0-2.6,1.7-1,.6-2.1,1.2-3.3,1.6-3.6,1.5-3.3,1.3-3.4.9-.7-2.9-.7-7.3-1.5-10-.2-.7-.2-.8.4-1.1,2.3-1.2.8-1.2,8.1-3.9,1-.4.6,4.2,2.3,10.8Z" fill="#fddd8d"/><path id="cp" d="m201.4,108.4c1.3,3.3,1.1,3.1.7,3.2-3,1-5.9,2.4-8.6,4.2-.1-.1-.2-.3-.3-.5-.6-2.3-1.2-2.4-2.2-7.2-.2-1-.5-1,0-1.3,6.6-4.1,7.4-5.1,7.7-4.6s2.6,6.2,2.6,6.2Z" fill="#fddd8d"/><path id="cq" d="m201.2,32c1.8,1,.9,2.9.5,5.1-.2,1.2.6,2.5-.6,5.4-.2.6-.5,2.9-.9,4.1-.8,2.4-1.8,2.9-3.9,4.2-.5.3.4-1,.6-2.5.4-1.2.6-2.5.8-3.7,0-.9.4-1,.7-2.9.5-1.4.9-2.8,1.1-4.2,0-.7.4-1.1,0-1.9-.9-2.3-.9-2.5-.7-2.6,2.3-1.2,2.2-1.1,2.3-1.1Z" fill="#fddd8d"/><path id="cr" d="m200.2,185.9c.4,15,1.6,13.3-2.5,13.1-2.1,0-1.6.2-2.6,0-3.7-.6-5.2,1.2-5.6-1.1-1.5-8.5-1.2-11.2-1.2-11.2,0-1.6-.5-1.2,2.8-1.8,4.5-.4,6,.3,8.4.3.4,0,.6,0,.6.7Z" fill="#fddd8d"/><path id="cs" d="m199.8,182.8c.2,1.4.5,1.2-1.9,1-10.8-1-9.3,2.1-9.1-1.3.2-3.1-.5-3.5-1-9.3.3,0,.6-.1.9-.2,2.1,0,4.2-1.4,9.6-1.6.7,0,0,0,.8,4.6.1.7.7,5.8.7,6.8Z" fill="#fddd8d"/><path id="ct" d="m200,28.1c0,3.2-.1,2.7-1.5,3.6-1.4.7-2.9,1.2-4.5,1.3-2.8,0-1.2,0-3.6-.5-.9-.1-2,.9-5-.5-1.1-.5-2.3-.8-3.5-1-2.2-.2-6.6-2.8-9.6-4.2-5.7-2.5-3.5-1.5-7.4-5.2-1.9-1.8-3.4-1.4-6.1-6-1.3-2.2-2.9-1.8-3.8-4.3-.5-1.4.7-2,1.8-2.7,1.7-1.1,2.7.1,5.1-1.3,4.7-2.9,4.8.6,10.4-2.1,1.8-.9,4.6-.3,6.1.4.7.4,1.5.7,2.3.9,3.2.3,4.3.2,5.3.9,1.1.8,2.2,1.6,3.5,2.2,1,.4,2,1,2.7,1.8,2.2,1.7,1.6.6,3.6,2.7.6.8.9,1.8.7,2.7,0,.7.6,1,1.3,1.8,1.4,1.5,1.1,1.3,1.5,2.6.3,1,.4,2,.3,3-.6,2.2.5,2.1.5,3.8Z" fill="#fddd8d"/><path id="cu" d="m198.5,35.8c.5,1.2-.7,4.5-1.1,5.5-.3.8.2.1-.6,1.9-.5,1.2,0,.8-.7,3.5-.2.9-.5,2-.6,2.3-1.3,3.2-1.2,2.3-3.6,2.8-1.1.3-2.2.4-3.3.3.5-1.1.9-1.5.7-2.5,0-.2,2-4,1.6-5.7-.1-.6,0-1.2.3-1.8,1.3-2.4,1.8-5.1,1.3-7.8,0-.3,0-.2.7-.2,2.4.3,4.3-1.2,4.6-.5,0,0,.5,1.7.7,2.1Z" fill="#fddd8d"/><path id="cv" d="m198.3,166.9c.3,4.9,1.3,2.2-4.8,3.6-5.6,1.4-5.2,1-5.7,1.1-.2,0-.3,0-.3-.2-.1-5.2-.3-2.8-.1-5.1.2-2.6-.9-7-.4-7.1.4,0,4-1.4,4-1.4,1.3-.5,3.9.5,6.2-.1.3,0,.6-1.3,1.1,9.2Z" fill="#fddd8d"/><path id="cw" d="m197.4,155.7c0,.9,0,.7-.6.8-2.1.3-4.7-.5-6.5.2-3.9,1.4-3,1.1-3.7,1.3-.6-3.4,0-4.4.1-10.1-.1-.9-.2-1.8-.1-2.7.1-.3.5-.2.7-.3,1.5-.6,3.1-.9,4.7-1.1,3.3,0,3.3-.4,3.4,0,.5,4,1.2,8,2.1,11.9h0Z" fill="#fddd8d"/><path id="cx" d="m195.2,141.7c0,.6.2.4-2.6.6-3.9.2-3.6.9-6.1,1.2-.6-7.9-.6-4.5-.9-6.9-.5-4.2-.6-4.3-.1-4.4,4.3-.8,4.6-2.5,6.5-2.2,2.6,0,2.6-.2,2.6,0,.6,4.7.6,11.6.6,11.6Z" fill="#fddd8d"/><path id="cy" d="m194.1,127.1c.2,1.3.2,1.4,0,1.4,0,0-2.2,0-2.6,0-1.1,0-2.4.8-3.8,1.6-.8.3-1.6.5-2.4.7-1.2.3-.5-2.4-1.4-9.2,0-.7-.2-.6.6-.8,1.8-.4,3.5-.9,5.2-1.6,1.6-.4,2.8-1.7,2.9-1.2,1.1,4.8.4,3.6,1.4,9.1Z" fill="#fddd8d"/><path id="cz" d="m191.5,35.6c.3,5.2-1.7,5.9-1.7,7.5,0,2.5,0,1.8-.1,2.4-.9,2.6-1.1,3.1-1.5,3.6-.6.7.3,1.1-.4,2.1s-.5,1.2-1.2,1.2c-1.4.1-2.9,0-4.3-.5-2-.4-2.4-.3-4.2-1.6-.2-.2-.2-.2,0-.4,1.2-1.3.8-1.5,2.4-4.2.4-.7.7-1.4.9-2.1.5-2-.6.3,2-4.4.7-1,1.1-2.2,1.2-3.5-.1-2.6-.3-2.6,0-2.5,5.6,2.3,6.7-.9,6.9,2.5Z" fill="#fddd8d"/><path id="da" d="m190.5,111.6c.1.4,1.4,4.3,1.8,5-2.8,1.7-3.7,2-8.4,3.2-.5.1-.4-.3-.5-1.2-.9-4.8-3.2-7.9-2.5-8,.8,0,1.6-.3,2.3-.6,1.4-.3,2.7-.7,4.1-1.1,3.4-1.5,2-1.5,3.3,2.7Z" fill="#fddd8d"/><path id="db" d="m188.5,198.9c.2.8-8.6,0-12.4.3-2,.2-2.2.3-2.1,0,0-.6-.2-2.8-.2-3.4,0-.7,1-9,1-9.1,0-.7-.1-.7.7-.8,7.5-1.2,6.2,0,11.2-.2,1.2,0-.5,1.2,1.8,13.3Z" fill="#fddd8d"/><path id="dc" d="m186.3,101.7c1,1.6,1.9,3.2,2.7,4.8-1.1.6-2.3,1.2-3.6,1.5-.5.2-1,.2-1.5.3-5.9,1.6-2.4,1.9-7.7-4.5-.4-.5-1.5-1.2-1-1.3.9-.2,1.8-.6,2.6-1,1.1-.5,1.1,0,6.2-3.4.2-.1,0-.3,2.3,3.5Z" fill="#fddd8d"/><path id="dd" d="m187,177.1c1.9,11.9-.4,5.4-11.4,7.5-.4,0-.6,0-.6-.2.5-5.9-.4-4.9-.3-7.7,0-1,.1-2,0-3.1,0-.2,0-.2.2-.2,1.7.1-.6-.1,10.1-.3,2.1,0,1.3-.3,2,4Z" fill="#fddd8d"/><path id="de" d="m186.3,171.5c0,.3,0,.3-.3.4-.6,0-1.2,0-1.8,0-2.9,0-5.8,0-8.7.2-.9,0-.9,0-.9-.4-.7-5.5.4-7-.4-11.5,0-.2,0-.3.2-.2.7,0,1.4,0,2.1,0,4.1.4,1.4.8,8.9-.1.2,0,.2,0,.3,1.3.4,2.1.5,4.3.3,6.4,0,.5.2,2,.2,2.1,0,.7,0,1.3,0,2h0Z" fill="#fddd8d"/><path id="df" d="m185.4,148.8c-.2,4.7-.7,5.5-.1,9.1,0,.3,0,.4-.3.5-2.7.6-5.6.7-8.3.2-3.5-.2-2.5,1.1-2.6-3.5,0-2.7.5-4.3.4-7.1,0-1.7,0-1.9.2-2,1.1-.5,4.2,1.1,10.1-.7.5-.1.3-.4.5,3.5Z" fill="#fddd8d"/><path id="dg" d="m185.1,141.6c.1,2.3.2,2.3-.2,2.3-5.7,1.2-1.9.8-10.2.7-.4,0-.3,0-.7-2.4-.1-.8-1-6.5-.9-7.7,0-.9-.2-.9.4-.9,3.4.4,2-.1,4.3-.1,7.6-.1,5.7-3.1,6.5,3,.4,1.7.6,3.4.8,5.1h0Z" fill="#fddd8d"/><path id="dh" d="m183.6,131c0,.4,0,.5-2.6.9-1.1.2-2.2.4-3.4.4-2.4.3-2.5.4-3.2.3-2.3-.4-1.2,1.2.2-4.9.4-1.5.6-3,.6-4.6-.1-.8-.3-.4,6.6-1.7,1.1-.2.9,0,1.3,3.4,0,2.1.3,4.2.6,6.3h0Z" fill="#fddd8d"/><path id="di" d="m183.5,34.5c-.2.6.1,1.3,0,1.9-1,2.9-3.1,5.4-3,5.9.1,1.7-1.1,2.5-2.3,5.3-.2.4-1.1,1.7-1.5,1.5-1.7-1-2.8-.5-4.6-1.5-.7-.4-1.5-.9-2.2-1.3-.6-.3.4-.5,2.2-3.7.9-1.7-.2-1.2,1.7-4.2,3-4.7,2.6-6,2.6-7.9,0-.5-.2-.4,2.7.9,1.3.6,2.6.9,4,1,.4,0,.3.2.5,2Z" fill="#fddd8d"/><path id="dj" d="m182.3,120c0,.3-.4.1-6.7,1.5-.6.1-.1,0-1-3.3-1.5-5.6-2-4.9-1.2-5.4,1.6-.8,3.2-1.4,5-1.7.7,0,.8-.5,1.3.6,1.8,4.6,2.1,5.1,2.6,8.3Z" fill="#fddd8d"/><path id="dk" d="m177.2,107.6c1.7,2.6,1.8,2,.2,2.3-1.3.3-2.5.8-3.7,1.4-1.4.6-1.2.9-1.6.4-1.9-2.5-2.6-3.2-3.1-3.9-1-1.7-3.8-2.7-1.9-3,.3,0,.5-.2.8-.4,1.7-.6,3.5-1,5.4-1.2.5.3.9.7,1.3,1.1,1,1,1.9,2.2,2.6,3.4h0Z" fill="#fddd8d"/><path id="dl" d="m174.8,29.5c.3.1.2.3.2,1.5-.1,2.1.1,2.1-1.6,5.5-1.3,2.4-1.7,2.3-2.1,3.9,0,.7-.3,1.4-.6,2-.4.6-1.6,2.3-1.9,2.8s.1.2-3.1-1.1c-1.4-.5-2.7-1.3-3.9-2.2-.4-.3-.3-.3.8-2.1,1-1.5.7-2.4,1.2-3.4,1.9-3.4,1.3-1.6,4.7-9.5.1-.4.3-.2,1.8.5,4,1.8,1.7.8,4.6,2.2Z" fill="#fddd8d"/><path id="dm" d="m171.2,113.9c.9-2,2.8,7.8,2.7,8,0,1.5-.2,2.9-.5,4.4-.4-.4.5.5-2-2.3-2.2-2.4-2.7-2.6-2.5-3.8.5-2.2,1.2-4.3,2.2-6.3h0Z" fill="#fddd8d"/><path id="dn" d="m173.7,179.6c.4,2.1,0,1.3,0,4.8,0,.3,0,.3-1.7.2-3.4,0-2,0-8.8-1.1-1.3-.2-1.9-.2-1.8-.5.5-3.4,1.7-6.1,1.1-10.5-.2-1.8-.9-.2,9.1.8,1.8.2,1.9,0,1.9.4,0,.8,0,1.6,0,2.5,0,1.2.2,2.3.4,3.5Z" fill="#fddd8d"/><path id="do" d="m161.2,184.3c11.7,2.6,12.4.7,12.2,2.1-1.7,14-.4,9-.7,12.7,0,.4,0,.4-.5.4-3.2.1-10.3-.5-12.4-.5-1.2,0,.3-2.1.7-7.2-.2-1.6-.2-3.2,0-4.8.4-2.8.2-2.8.5-2.7Z" fill="#fddd8d"/><path id="dp" d="m172.6,145.6c1,.3.8-.5.3,6.6-.3,4.6.2,6.3-.5,6.2-1.2-.2-2.9.6-6.2-1.1-.9-.4-.9-.2.5-3.4,1.4-2.7,2.5-5.6,3.3-8.5,0-.3.2-.3.4-.2.8,0,1.5.2,2.2.4h0Z" fill="#fddd8d"/><path id="dq" d="m173,165.8c0,6,.8,6.2,0,6.1-2,0-4-.2-5.9-.6-5.1-1.2-4.8-.4-4.8-1.8,0-.5.1-1.1.4-1.6.6-1.5.8-3.2,1.1-4.2.8-2.6.2-3.4,1.1-5.4.2-.5.2.1,3.7,1.2,1.3.2,2.6.3,3.9.2,1,0,.5,6,.5,6.1Z" fill="#fddd8d"/><path id="dr" d="m173,128c.1,2.1-3.1,7.1-3.4,9.6,0,.6-.4,0-.9-.7-.8-.8-1.6-1.6-2.4-2.3-1.2-1.3-1.8-1.2-1.6-1.7,1.7-6,1.2-2.3,3.8-9.9.1-.3.1-.1,2,1.9,1,.9,1.9,2,2.6,3.2h0Z" fill="#fddd8d"/><path id="ds" d="m172.8,142.5c.4,2.8.8,1.9-2.1,1.7-.8,0,0-1.1,0-3,0-.5.1-.9.2-1.4,0-1,.1-2.1.4-3,1.1-2.8.3-1.8,1.5,5.7Z" fill="#fddd8d"/><path id="dt" d="m170,111.3c.1.5.7.4.2,1.4-2.5,5.2-1.9,7.7-2.7,7-1.2-1.2-2.5-2.2-3.9-3.2-1.1-.9-2.2-1.7-3.4-2.4-.3-.1-.3-.2-.2-.5.8-2.5,1.8-5.7,3.9-7.6.2-.2.4-.4.7-.3.2-.1.4,0,.5.1,1.2,1,2.3,2.1,3.2,3.4.6,1,1.4,1.4,1.5,2Z" fill="#fddd8d"/><path id="du" d="m169.2,140.3c-.3,4.2-1.5,8.4-3.5,12.1-.1.2-.2.2-.4,0-.5-.5-4.9-4.9-6.2-6-.9-.8,2.7-6.7,4.2-10.3.7-1.5.6-1.8.9-1.5,1.8,1.6,4.2,3.4,5,5.7Z" fill="#fddd8d"/><path id="dv" d="m165.9,24.7c.7.7,1,.8,1.6,1.5-.4,1-1.8,3.6-2.2,4.7-.8,1.8-1.7,3.5-2.7,5.2-.7,1.4,0,1.3-1.3,3.7-.1.4-.4.7-.7.9-2.7-3.9-3.5-2.3-5.5-5.6,0,0,0-.2,0-.3.5-1.7,1.2-3.3,2.2-4.9,1-1.9.8-2.1,2.1-5.5.6-1.1,1.3-2.2,2.1-3.2.2-.3.2-.2.5,0,.3.2.7.3,1,.5,1.1.7,1.3,1.3,3,3Z" fill="#fddd8d"/><path id="dw" d="m167.4,121.5c-1.9,7.1-2.4,5-3.9,10.3-.1.4-.1.7-.4.4-5.1-4.1-9.4-4.3-8.9-5.3.6-1.4.9-2.8,1.6-4.1,1-1.9,3-4.2,3.9-7.3,2.7,1.8,5.3,3.8,7.7,6h0Z" fill="#fddd8d"/><path id="dx" d="m165,154.1c-.9,3-2.1,3.7-2.3,7.2-.3,2-.8,4-1.5,5.9-.6-.5-.6-.4-.6-.5-.2-1.1-3.4-3.4-3.8-4.1-.4-.7-1-1.3-1.6-1.8-.4-.4-1.1-.4-1-.8.7-2.2,0-2.1,1-4.2,1.1-1.9,1.9-4,2.5-6.1.6-2.1.5-2.1.7-1.9,2.2,2,4.4,4,6.4,6.3Z" fill="#fddd8d"/><path id="dy" d="m161.6,132.8c.8.8,1.5.8,1.2,1.4-.7,1.8-1.5,3.6-2.5,5.2-1,1.9-1.9,3.9-2.6,5.9-4.4-3.5-5-2-8.6-5.1-.5-.4-.5,0,.8-4.3,1.6-5.5,2.1-4.6,2.5-5.6.3-.6.7-1.1,1.1-1.7,0-.1.2-.1.3,0,3,1.5,5.7,2.1,7.9,4.2Z" fill="#fddd8d"/><path id="dz" d="m162.6,104.4c1.6.5,0,0-1.8,4-2.6,5.6-1.2,5.2-3.5,4.6-5.9-1.6-4.2-2.5-8-3.7-.3,0-.4-.2-.2-.5,2.3-2.6,2.4-4,6.6-5.9.7-.2,1.3-.6,1.8-1,.4-.4,1.8,1.5,5.1,2.5Z" fill="#fddd8d"/><path id="ea" d="m161,172c.1-.7.9,2.8-.4,7.9-.7,3-.4,3-.7,2.9-3.1-.5-3.2-.3-2.9-.9.6-1.4.7-1.5.9-1.7,1.6-1.8,2.5-4,2.7-6.4.1-.6.3-1.2.5-1.9h0Z" fill="#fddd8d"/><path id="eb" d="m160.7,168.7c0,0,0,.2-1,2.7,0,.1,0,.2-.2,0-.3-.4-.7-.7-1.1-1-1.1-1.3-1.8-2.6-3.1-3.1-1.8-.7-.9.1-3.3-1.6-.2-.2-.1-.1,1.3-3.4.5-1.2.2-1.1,1.7.1.6.5.5.8,1.5,1.8,3.6,3.4,1.2.7,4,4.4Z" fill="#fddd8d"/><path id="ec" d="m159.5,184c.2,0,.3,0,.2.4-1,7.3,0,5.4-.6,9.3,0,.7-.9,4.3-1,5,0,.3-.1.4-.4.3,0,0-.2,0-.4,0-7.5-.9-6.8-.2-8.6-.6-2.1-.4-2.4-.2-2.2-.7.6-2.2,1-4.4,1.2-6.6,0-.4.2-.4,1.6-1,2.9-1.1,4.2-4.8,6.6-6.5.3-.2.5,0,3.4.4Z" fill="#fddd8d"/><path id="ed" d="m159.4,18.8c2,2.5,1.8.5-.4,3.9-1.5,2.3-1.6,4.4-2.8,6.6-.8,1.2-1.4,2.5-1.8,3.8,0,.2-.2.6-.3.4-.9-1.5-4.5-1.9-4.5-3.9.2-2.5,1.2-5,2.7-7,.4-1,.6-2,.7-3,.6-1.5,1.5-2.7,2.8-3.7.6-.4.6-.9.9-.7,1.2.9.9,1.5,2.8,3.7Z" fill="#fddd8d"/><path id="ee" d="m158.2,177.1c-.3.8-.7,1.5-1.3,2.1-1.1,1-.6,2.4-3,4.5-1.3,1.2-2.4,3.4-3.2,3.9-2.3,1.2,1.9-.7-7.1,3.4-1.8.8-1.7.1-2.7.4-10.2.5-3.9-.3-11-.4-.4,0-.5,0-3.2-1.4-1-.5-.9-.9-1.1-1.1-1.3-2.4.2-3.6-.3-5.1-.5-1.9-.1-3.9.9-5.5,0-.2.5-1.3.7-2,.4-1.1,2.7-2,4.6-4.2,2.1-2.5,2.4-1.8,7.2-4.1,3.2-1.6,6.8-2,10.2-1.2,1.1,0,2.2.5,2.9,1.4,1.5,1.2,2.4.5,3.7,1.9.6.8,1.2,1.5,1.8,2.1,2.6,2.6,1,3.5.7,5.2Z" fill="#fff"/><path id="ef" d="m152.6,112.6c5,2.3,6.3,1.7,5.8,2.5.2.8-2.7,5.2-3.2,6-.9,1.6-1.6,3.4-2.1,5.2-.1.4,0,.4-1.9-.5-12.6-5.5-10.1-.5-7.2-7,.9-2.7,2.2-5.4,3.9-7.8.3-.4.1-.8,1.2-.4,2.2.7,1.7,1.2,3.5,2Z" fill="#fddd8d"/><path id="eg" d="m157.1,146.6c.9,1-3,9-3,9.2-1.8,3.7.9,5.2-3.5,1.9-4-3-2.1-2.3-7.8-4.7,0,0,0,0-.1,0,0,0,0,0,0,0,0,0,0,0,0-.1,0,0,0,0,0-.1,3.7-8.7,2.4-4.3,5-10.2.5-1.2.5-1.2.7-1,3.9,3.2,2,.6,7.4,4.1.5.3,1,.7,1.4,1.1Z" fill="#fddd8d"/><path id="eh" d="m155,13.7c.2.4.8.4.5.7-1,.7-1.8,1.6-2.4,2.5-2.6,4.1-.5,3.2-2.9,6.6-1,1.4-1.6,5.3-1.9,4.2-.3-1.9-.5-3.8-.5-5.7.2-.5.4-1,.5-1.6,0-1.7-.8-5.8,2.5-7.8,1.9-1.1,1.2-1.4,2.6-2.3,0,0,0,0,0,0,0,0,0,0,0,0,0,0,0,0,0,.1,0,1.3.9,2.2,1.5,3.2Z" fill="#fddd8d"/><path id="ei" d="m152.5,160.6c.3.2.1.3-.8,2.4-.9,1.9-.8,2.2-1.1,2.1-4.2-1.2-2.5-.4-4.9-.7-1.5,0-2.9.2-4.3.6-.3,0,.1,0-3.2-1.8-.8-.4-1.1-.2-1-.6.6-1.9,1.7-2.9,2.8-4.5.5-.7,1.1-1.9,1.3-2.2.8-1.3.7-2,1.1-1.8,1.9,1.2,2.4.5,5.5,3,2.1,1.7,3,2.3,4.7,3.5Z" fill="#fddd8d"/><path id="ej" d="m152.3,127.9c-.6,1.1,0-.2-1.1,1.8-3,4.9-3.1,10-4,9.6-6-2.4-.3.2-9-3.4-1.4-.6-1.6-.2-1.4-.8,5.1-14.7,1.5-11.6,11.3-9,1.5.5,2.9,1.1,4.2,1.8h0Z" fill="#fddd8d"/><path id="ek" d="m142.4,138.9c4.4,1.5,4.7,1.5,4.5,2-.4,1.1-.9,2.1-1.5,3.1-1.6,2.6-3,5.3-4.3,8-.9-.3-4.5-3-6.7-3.7-4.7-1.5-4.2-1.3-4-1.9.8-2.7,2.2-5.3,4-7.4,2.6-3.6-.4-2.9,7.9,0Z" fill="#fddd8d"/><path id="el" d="m146.8,45.2c.4,0,0,0-1,2.5-.2.6-.6,1.1-1.2.9-.9,0-2.1-.6-1.7-1.7.2-.5.4-1.1.7-1.5.3-.6,0-.4,3.2-.1Z" fill="#fddd8d"/><path id="em" d="m141.9,120.5c-.8,1.1-1.6,1.7-1.9,1.6-1.8-.6-6.7.2-6.4-.7.8-2.8.6-3.6,4.5-8.5,2.5-3.2,2.1-3.1,2.5-3.1,2-.2,4.1,0,6,.4.2,0,0,0,0,.2,0,0-4.3,9.6-4.7,10.1Z" fill="#fddd8d"/><path id="en" d="m145.8,31.8c.3.5,0,.6-.9,1.5-1.1,1.1-1.4,2.8-.9,4.2.2.6.4,1,0,1.5-2.2,2.5-.7,3.5-1.4,3.5-2.4-.2-2-.4-2.1-.3-5.1-.9-3.3.2-2.9-4.7,0-.3,0-.4.4-.3.3,0,3.2,2.3,3.4.5,0-.6,0-1.2-.5-1.6-.3-1-1.1-.6-1.7-1.4-.3-.5-.9-.3-.6-.8,1-2,1.2-5.9,2.5-6.3,1.5-.4,1.5.6,3.6,0,.6-.2,1,0,1.1-.2-.7,1.3-.7,2.9,0,4.2Z" fill="#fff"/><path id="eo" d="m145,101.2c0,.1,0,.2,0,.3-6.6,5.5-5.4,8.7-6.2,7.7-2-3.2-1.8-2.5.4-4.2.6-.4.7-.6,2.9-3.4,1.9-2.5,1.4-2.6,2.9-.4Z" fill="#fddd8d"/><path id="ep" d="m138,151.6c2.7,1.6,2.8,1.6,2.8,1.9-.8,2.1-2,4.1-3.4,5.8-.1.2,0,.5-.4.5-.1,0-.2.3-.3.5-1.4,2.7-.2,1.6-3-.1-1.9-1.2-8.6-2.8-8.4-3.3,1.4-3.1,2.1-2.1,3.4-4.7,2.4-4.7,0-4.6,3.2-3.5,2.2.6,4.3,1.5,6.1,2.8Z" fill="#fddd8d"/><path id="eq" d="m139.5,165.4c.2,0,0,0,0,.1-3.4,1.5-4.3,3-3-1.5.1-.4,2.6,1.1,3,1.3Z" fill="#fddd8d"/><path id="er" d="m133.6,122.9c6.5.4,5.9.4,5.8.6-1.6,3-2.3,7.1-3.8,11.1-.2.6,0,.6-2.6,0-3.6-.7-3.4-.6-3.2-1,.6-1.3.6-2.4,1.3-3.5.7-1.6,1.2-3.3,1.6-5,.4-2.5.3-2.3.9-2.2Z" fill="#fddd8d"/><path id="es" d="m138.1,110.3c.3.3,0,0-3.3,4.4-.3.4-.1-.4-1.7-2.1-.7-1-1.1-2.1-1.2-3.3,0-1.2.3.2,3.9-2,.6-.3.5-.3.7.2.4,1,.9,1.9,1.6,2.7h0Z" fill="#fddd8d"/><path id="et" d="m135.2,49.8c1.2-.3.9-1.5,0,3.1-.5-.2-.7-.6-.9-1-.3-.8,0-1.7.8-2.1,0,0,0,0,0,0h0Z" fill="#fff"/><path id="eu" d="m135.3,163.4c-1.4,4.6-.4,4.2-1.5,4.7-1.5.6-2.8,1.7-3.7,3.1-.3.4-.3.3-1.7,1.5-.3.2-.4.2-.6,0-3.9-7.8-4.2-7.3-3.9-7.7,1-1.5.4-2.3.9-6.4,1.6.4,1.4.6,6.3,2.2,1.6.6,3,1.6,4.2,2.9Z" fill="#fddd8d"/><path id="ev" d="m129.6,135c5.4,1.3,5.4,1,5.1,1.5-1.7,3.1-3.8,4.1-5.4,9.9,0,.2-.2.2-.3.1-2.9-1.2,1-.2-6-1.9,1-2.4,1.7-2.9,5.5-8.1,1-1.3.7-1.5,1.2-1.5Z" fill="#fddd8d"/><path id="ew" d="m128.8,147.9c-.9,5.7-2.9,4.4-4.6,8.5-.2.4.2,0-4.2-1.7-.3-.1-.7-.2-.5-.5,1.6-2.6,2-3.1,2.2-4.1,1.1-5.1.1-4.4,2.3-3.9,1.3.3,3.5.6,4.8,1.8Z" fill="#fddd8d"/><path id="ex" d="m126.3,172.4c.6,1.2,1,1.1.3,1.7-1.2,1-1.8,4.7-2.6,4.7-3.8,0-3.7-.1-3.8-.5-.4-1.1-1-1.7-2.3-9,0-1-.1-1.9,0-2.9,0-.9,1,1.5,4.9-.2.5-.2.1-.7,3.6,6.2Z" fill="#fddd8d"/><path id="ey" d="m124,184.9c-.3,2.9.4,3.4,0,3.3-1.7-.5-2.5-.1-4.5-.9-4.9-1.9-5.6-3.4-7.6-5.3-.7-.7-1.2-.7-1.4-1.5,0,0-1.9-7.9-1.7-8.7.5.4.9.9,1.3,1.4,2.3,2.8,5.4,4.8,8.8,6,.5,0,.4.2,1.6,2.2.6,1.3,1.5,2.4,2.5,3.3.6.5,1.2-.3,1,.2Z" fill="#fddd8d"/><path id="ez" d="m124,179.9c-.7,2.8.5,4.8,0,4.1-1-1-1.8-2.1-2.4-3.3-.6-1.1-.7-1,.2-.9,0,0,0,0,0,0,2.3-.1,2.3-.2,2.3,0Z" fill="#fddd8d"/><path id="fa" d="m123.3,161.8c0,.7,0,2.4-.4,1.9-2.1-2.6-3.1-2.6-3.6-3.8-.7-1.3-.8-2.9-.3-4.3,0-.2.2-.3.4-.2,6.5,3.2,3.7,1,4,6.4Z" fill="#fddd8d"/><path id="fb" d="m122,164.8c.3.4-.2.2-.5.4-.5.4-1.1.2-1.6.4-.9-.2-.2,0-2-.8-.2,0-.2-.2,0-1.6.5-3.1,0-2,2.6-.1.6.5,1.1,1,1.5,1.7h0Z" fill="#fddd8d"/><path id="fc" d="m120.4,147.8c0,0,0,.2.1.2-.3,2.1-.2,2-1,3.2,0,0,0,0,0,0,0,0,0,0,0,0,0,0,0,0,0,0,0,0,0,0,0,0-2-.9-3.6-.4-3.3-.9.6-1.5,1.9-2.6,3.5-2.9.4,0,.7,0,1,.2h0Z" fill="#fddd8d"/><path id="fd" d="m118.3,177.9c-4.7-2.2-4.7-2.5-8.2-6.3-1.2-1.3-1.3-1.4-1.2-1.8.4-3.7,1.7-10.1,1.8-10.4.5.3,2.2,3.9,2.8,4.5,1.8,1.8,3.2,1.4,3,2.3-.7,4.3,2.7,12.3,1.8,11.8Z" fill="#fddd8d"/><path id="fe" d="m114.7,151.8c5.5.6,4,0,2.8,3.7-.7,2.1.5,3.7-1,8.7-3.6-1.5-2.8-4.1-5.2-6.2-.9-.8,1.3-5,3.4-6.2Z" fill="#fddd8d"/><path id="ff" d="m115.9,147.9c-.8.8-.3.9-1.8,2.2-.4.4-.5.4-.8,0s-1-.7-.4-1c.1,0,3.8-2.2,3-1.2Z" fill="#fddd8d"/><path id="fg" d="m114.2,146c.1,0,0,0,.5.6-1,.5-2,1.1-2.9,1.7,0,0,0,0-.1,0,0,0,0,0-.1,0,0,0,0,0-.1,0,0,0,0,0-.1,0-.1-.1-.3-.1-.4-.2-.6-.5-1.4-.9-2.2-1-.6-.3-1.3-.4-2-.4,0,0,0,0-.1,0,.3-.4.2,0,2.3-1,1.7-1,3.8-.9,5.4.3h0Z" fill="#fddd8d"/><path id="fh" d="m111.7,150.3c.8.7,1.2,1,.8,1.2-.6.4-.8,1-1.8,2.5-1.1,1.6-.7,2.9-1.3,2.5-2.3-1.2-2.2-1-1.9-1.3,2.5-2.9,3.7-5.4,4.2-4.9Z" fill="#fddd8d"/><path id="fi" d="m110.2,149.2c.4.3,0,0-1.4,2.3-3.6,5.3-2,2-6.9,1.2-.4,0-.8-.2-1.1-.4,0,0,0,0,0-.1,0,0,0,0,0-.1,1.3-1.2,2.8-3.8,4.4-4.4,1.2.3,3.7.4,5.1,1.6Z" fill="#fddd8d"/><path id="fj" d="m106.7,156.7c.5.2,3,1.2,2.7,1.7-.2,2.1-1.5,9.1-1.5,9.1-.2,1.3,0,2-.5,1.7-1.9-1.3-1.2-.7-4-3.7-.3-.4-.6-.4-.7-.6,0-.4,2.4-4.1,3-6.4.2-.6.4-1.1.7-1.6,0-.1.1,0,.2,0Z" fill="#fddd8d"/><path id="fk" d="m108.4,176.8c.6,2.7.9,3.2.4,3-1.5-1-2.9-2.1-4.2-3.4-.7-.8-3.2-4-3.1-5,0-1.6-.3-3.5.5-5.3.3-.6,1.3,1.8,4.1,3.7,2.7,1.8.4-1.4,2.2,7Z" fill="#fddd8d"/><path id="fl" d="m106.8,145c-1.2.4-2.3,1.1-3.2,1.9-1.3,1.1-2.5,2.3-3.5,3.7-.2.2-.9.6-1.5,1.2s-.7.7-2.5,3.2c-.4.8-.7,1.7-.9,2.5-.8,3.1-.5,1.8-1.6,4.6,0,.2-.4.3-.5.1-.2-.3.8,1-2.4-2.6-2.2-2.4-6.4-3.4-4.3-7.3,1.5-2.8,1.5-6.4,4.7-8.9,1-.9,2.2-1.6,3.5-1.9,1.1-.3,2.1-1.3,5.7-2.3,1.7-.5,3.1,1,3.9,2.6,1.2,2.4,5.5,2.3,2.7,3.1Z" fill="#fddd8d"/><path id="fm" d="m103.4,154.5c3.5,1.7,1.5.8,1,3.7-.3,1.1-.8,2.2-1.5,3.2-2.3,4.4-.8,2.3-4.1,1.6-1.2-.3-2.2-.9-3.2-1.6-.2,0-.3-.2-.1-.4.6-.9,1-4.6,2.3-6.2,1.1-1.4,1.3-1.9,2.7-1.2,2,.9.9,0,2.8.9Z" fill="#fddd8d"/><path id="fn" d="m101,165.4s0,0,0,.1c-.9,2-.3,4.4-.5,4.9-2.3-1.9-3.1-1.7-4.4-3.2-.4-.4-.8-.9-1-1.4-.3-1-.3-2.1,0-3.2.3-.8,1.5,1,3.4,1.4.9.3,1.7.7,2.5,1.1,0,0,0,.1,0,.2Z" fill="#fddd8d"/><path id="fo" d="m98.9,132c1.7,7.7.6,5.4-2.1,6.8-.1,0-2.8,1.4-2.9,1.4-2.1.2-5.2,3.1-6.5,5.4-1.6,2.8-1.3,3.7-2.2,3.3-4.9-1.9-5.3-1.9-7.5-4.1-1.8-1.8-2.4-2.7-1.7-3.9,1-1.5,0-2.3,0-4.7,0-.9.7-1.3,1.5-2.6s-.2-1.6.4-3.5c.2-.8.7-.9,1.7-2,.8-.9.4-1.9,1.2-3,2-2.6,7.1,4.9,10,5.5,1.6.3,3.4.5,4.4-.6.2-.2,0-.5,0-.7,0-.6-.9.3-1.2-.5-.2-.8-.9-3.4-.9-3.4,0-.2,0-.4.1-.5.4-.3.6,0,.9.1,1.3.3,1.8,1.6,3.1,3.2.9,1.1,1.4,2.4,1.6,3.7Z" fill="#fff"/><path id="fp" d="m86,123c.7,2.6.8,2.2.7,2.5-.6-.4-1.2-.8-1.6-1.3,0-.2-.3-1.2.2-1.5.5-.3.6-.4.7.3Z" fill="#fff"/><path id="fq" d="m81.5,56c0,1-7.2,1-11.6,1.8-.2,0-.6.1-.6-.2,0-.5-.2-3.3-.1-4.5.1-6-.9-7.4.4-7.5,9.6-.9,11.3-1.8,11.6.1,0,.5.3,7.2.3,10.2Z" fill="#fff"/><path id="fr" d="m80.1,18.9c0,0,.6,7,.5,10.4,0,.2-.1.2-.2.2s-11.2,1.4-11.7,1.6c-.5.2-.6-4.9-.6-5.1,0-7.3-.6-6.9.1-7,1.6-.2,6.6-.7,9.1-.7,1.7,0,2.6-.3,2.8.6Zm-1.6,2.8c.6-.7-.1-1.9-1.2-1.9-.6,0-4.2,5.3-4.5,4.7-1.2-2.9-.8-2.6-2-2.9-1.4.4-1.8.5-1,2.2,2.9,6,2,5.7,8.6-2.2h0Zm-8.7,9.1h0s0,0,0,0c0,0,0,0,0,0h0Z" fill="#fddd8d"/><path id="fs" d="m31.8,36.1c0,1.1-11.3,1.4-13.3,1.6-.4-1.7-.3-6.1-.6-11.7,0-1.2-.4-1.3.2-1.5.8-.2,10.4-.8,11.3-.8s1.7-.3,1.9.6c.2,1.1.7,9.4.7,9.4,0,.6-.1,1.6,0,2.3Z" fill="#fff"/><path id="ft" d="m192.9,18.8c.3.1.4.5.2.7,0,.1-.2.2-.3.3-1.9,1.1-1.9.9-4.9,1.3-3.2-.2-1.4-.8-4.8-1.1-3.4-.1-6.6-1.8-8.7-4.6-.8-.8-3-1.1-4-3.4-.1-.7,0-1.3.5-1.8.3-.2.8.3.8.7,0,.9-.4,1.3.8,1.9,5.7,3.2,2.7,3.6,7.9,5.4,1,.3,2,.5,3.1.6,2.6.1,1.9.7,3.7.9,4,.6,4.8-1.5,5.6-.8Z" fill="#1d212d"/><path id="fu" d="m184.1,11c.7,1.4.4,3.6-.6,3.8-1.5.5-3.2,0-4.3-1-1.4-1.3.3-3.7,2.2-4,1.4.2,2.2.2,2.7,1.2Zm-1.8,2.6c.8,0,1.2,0,.9-1.4,0-.3-.1-.7-.5-.9-.4-.2-.9-.3-1.3-.2-1,.3-2,1.5-1,2,.6.4,1.3.6,2,.5h0Z" fill="#1d212d"/><path id="fv" d="m176.2,54c1,.3,2.5-.7,2.4.6,0,.4,0,.4-.3.6-.5.4-1.1.5-1.6.3-1.1-.3-.7.5-2.7,0-1.1-.4-1.3-1.7-1-1.9.3-.2.7-.1.9.2.5,1.1,2,.1,2.3.2Z" fill="#1d212d"/><path id="fw" d="m168.7,54.6c3.1.3-3.6,6-5.2.7,0-.3,0-.4-.4-.1-1.1.8-3,.7-3.2-.8,0-.4,0-.8.2-1.1.3-.3.5,0,.8.1.2.1-.3,1.2.7.9.6-.2,1.2-.6,1.6-1.1.2-.3.4-.3.7-.2,1.1.2.4,3.4,1.8,3.1,2.3-.4,2.5-1.6,2.9-1.6Z" fill="#1d212d"/><path id="fx" d="m99.9,44.1c.9,0,2.3-.4,2,.7-.2.7-.5.9-1.2.9-12.5,1.1-14,2.2-14,.9,0-1.5,1.5-1,7.9-1.9,4.9-.7,4.1-.6,5.3-.6Z" fill="#1d212d"/><path id="fy" d="m101.9,18.5c-.4,1.2-.8.8-4.7,1.2-8.2.8-10.6,1.7-10.6.5s.4-.9,8.3-1.9c3.8-.5,7.7-1.2,7,.2Z" fill="#1d212d"/><path id="fz" d="m99.9,51.6c-.2.7-.4.9-1.2.9,0,0-9.6,1.3-10.4,1.6-.9.3-1.1-.1-1.1-.9,0-1.4,13.1-3,12.7-1.6Z" fill="#1d212d"/><path id="ga" d="m99.2,24.7c1,0,.7,1.7-.6,1.7-.4,0-10.2,1.4-10.6,1.5-.7.2-.9,0-1-.9,0-.6.2-.7.7-.9,0,0,11.2-1.4,11.5-1.4Z" fill="#1d212d"/><path id="gb" d="m97.1,47.8c.3,0,.6.2.6.5,0,.1,0,.2,0,.3-.3.9-.9.9-2,.9-1,0-7.8,1-7.9,1-.9.1-1-1.3-.5-1.6,3.3-.6,6.5-.9,9.8-1.2h0Z" fill="#1d212d"/><path id="gc" d="m96.1,21.6c.4,0,1.7-.2,1.3.9-.5,1.3-.7.4-4.7,1.1-1.1.2-1.7,0-3.3.3-.6,0-1.2.2-1.8.2-1.2.1-1.1-1.6-.2-1.6,0,0,8.8-1.1,8.8-1Z" fill="#1d212d"/><path id="gd" d="m80.3,29.6c0,0,.2,0,.2-.2,0-3.5-.2-7-.5-10.4-.2-.8-1.1-.6-2.8-.6-2.4,0-7.7.6-9.1.7-.7,0-.2-.3-.1,7,0,.1,0,5.2.6,5.1.5-.2,11.6-1.5,11.7-1.6Zm1.6.4c0,1.2-1.5,1-7.7,1.8-7.5,1-7.1,1.2-7.1-2.5,0,0,0,.4-.3-8.3-.2-.8-.1-1.7.2-2.5.7-1.2,2.7-.8,7.5-1.1,5.8-.4,6.7-.6,6.8.6,1,14.3.6,11.1.6,12h0Z" fill="#1d212d"/><path id="ge" d="m79.9,161.2c-.8-.4-3.7-2-4.6-2.5-3.7-1.9-7.3-4.1-10.8-6.4-1.1-.7-2.5-.9-3.6-1.7-.6-.4,1.7,1-6.4-3.8-4.7-2.8-5.3-1.9-10.6-5.4-1.7-1.1-3.6-2-5.6-2.7-1.2.2-6.4,3-11.1,4.7-2.8,1-1.4.3-6.4,3-5.4,3-3.6,1-15.7,7.9-.3.2-.6,1-.5,1.2.4.7.9,1,2.2,1.7.6.3,1.1.4.7.7-.7.5-.9.9-2.6,3-.2.2-.8.6-1.4,1.1-.6.4-.7,1.1-.3,1.7.2.2.4.4.7.5.2,0,.5.2.8.2,3.8,1,3.4,2.3,7.3,3.6,1.8.7,3.5,1.5,5.1,2.6,0,0,3.2,1.6,3.4,1.6,1.5.4,2.9.9,4.2,1.7,1.1.8,2.4,1.5,3.7,2,3.6,1.4,4.3,1.8,5.3,2.2,4.8,1.7,3.2,1.5,5.7,2.7.9.4,1.9.7,2.8,1.2.5.2,1,.4,1.5.5,1.4.5,2.1,1.2,4.1,1.3.3,0,.6.2.8.4,2.5,1.5.6-.6,9.8-5.2,7.4-3.7.4-.6,11.5-6.9,1.9-.9,3.6-2,5.3-3.2,7.5-5.9,9.7-5.1,4.8-7.9Zm-41.6,17.7c-.9-.7-9.5-3.8-11.7-5.1-1.1-.8-2.2-1.4-3.4-1.9-.8-.4-1.7-.7-2.6-.8-.4,0-5.7-3.2-8.2-4.2-4.1-1.7-4.6-2.9-8-3.8-1-.2.6-.6,1.5-1.9.8-1,1.6-1.9,2.5-2.7.2-.3.2-.4,2.9,1.5,8.1,5.8,9,5.3,13.6,7.9,2.6,2,5.3,3.8,8,5.5,8.9,4.9,6.2,3.7,8.6,5.4,4.2,3,4,3.1,4.1,3.3-1-.4-6.1-2.2-7.4-3.2h0Zm41.5-14.7c-11.7,8.5-15.2,9-18.8,12.4-3,1.5-7.6,3.4-10.9,6.9-.6.7-.5.2-2.3-1.2-9.8-8.4-9.5-6.4-18.9-12.9-2.5-1.3-2.2-2.3-6.7-3.9-2.7-1-10.7-6.8-12.9-8.1-4.1-2.4-4.6-1.3-1.3-3.3,3.2-1.9,6.5-3.5,9.9-4.8,2.5-.9,6-3.5,8.1-4.1,2.2-.7,3.5-1,12-5.1,6.3,2.6,4.4,2.7,9.5,5.1.8.4,3.2,1.4,4,1.7,1.7.6,8.3,5.2,10.7,6,1.8.8,3.4,1.7,5,2.9,2.1,1.6,8.6,4.8,9.9,5.6,4.2,2.5,4.5,1.6,2.6,3h0Z" fill="#1d212d"/><path id="gf" d="m77.3,19.9c1,0,1.7,1.2,1.2,1.9-6.6,7.9-5.7,8.2-8.6,2.2-.9-1.7-.4-1.8,1-2.2,1.2.2.8,0,2,2.9.2.6,3.9-4.7,4.5-4.7Z" fill="#1d212d"/><path id="gg" d="m71.4,100c1,2.7-2.8,3.9-3.3,1.7-.6-2.6,2.7-3.3,3.3-1.7Zm-.7.9c0-1.5-2.3-.5-1.7.6.5.9,1.6.3,1.7-.6h0Z" fill="#1d212d"/><path id="gh" d="m61.2,167.9c.1.6-.4.5-.8.9-.5.7-1.1,1.4-1.8,2-.5.4-.6,1.5-2,1.3-2.7-.4-2.5-.3-2.9,3.5-.1,1.1-1,1.1-1.3.5-.5-.9-1.1-2.9-1.9-2.1-1.6,1.5-.9,4.4-1,4.6-.2.7-.9,0-1-.4-.3-1.7,0-3.4,1-4.8.3-.4.8-.7,1.3-.7.2,0,.5,0,.7.1.2.1.4.3.6.5.7.8.6,1.7.8,0,.2-2,.9-3,3.9-2.4.4,0,.1,0,1.5-1.5,1.7-1.7,1.4-2.4,2.4-2.2.3,0,.4.3.5.6Z" fill="#1d212d"/><path id="gi" d="m56.5,161.6c1.5.9.2,1.3-9.1,8.3-8.3,6.3-3.8,4.3-10.7.8,0,0-3.6-2.2-4.8-3.2-.7-.5-.4-1.1-.1-1.3,4.1-3,8.4-5.7,12.9-8.2,1.3-.7,2-2.5,4.6-.5.2.1,7.3,4.1,7.3,4.1Zm-12.1,9.3c11.1-8.6,11.6-8.5,11.2-8.6-1-.7-2-1.2-3.1-1.8-.9-.4-1.6-1-2.4-1.4-2.3-1.2-2.6-1.9-3.3-1.4-2.5,1.5-13.8,8.9-13.9,8.9-.7.4,2.2,1.6,3.1,2.2.4.4.9.7,1.5.9.4.2.9.7,1.4,1,3.9,2.2,1.7,3.1,5.5.1h0Z" fill="#1d212d"/><path id="gj" d="m55.2,51.4c.4,0,.9.3.9.6-.3,1.5-.7,1.1-5.4,1.6-8.5.9-11.6,2-11.2.6.6-2,3.2-1,11.5-2.5,2.4-.4,2.9-.1,4.2-.4Z" fill="#1d212d"/><path id="gk" d="m54.7,23.2c-.2.7-.5.9-1.2.9-6.2.4-3,.3-6.3.6-1.4-.1-2,.4-3.4.4-3,0-5.8,1.3-5.5-.5.1-.6.4-.8.8-.8,10.6-.8,16.3-2.6,15.7-.6Z" fill="#1d212d"/><path id="gl" d="m51.3,29.8c.8,0,1.6-.1,1.4.8-.2.8-.6,1-1.2,1-1.1,0-1.3.2-10.6,1.4-.8,0-1.7.9-1.9-.7,0-.7.1-.8.8-1,.3,0,.6-.1.9,0,.7,0,1.9-.3,10.6-1.3Z" fill="#1d212d"/><path id="gm" d="m42.5,56.5c6.4-.9,9.7-1.5,8.8,0-.7,1.3.2.4-8.8,1.7-.6,0-1.2.2-1.8.3-.5,0-.9-.4-.9-.9,0-.1,0-.2,0-.3.3-.8.3-.5,2.7-.8Z" fill="#1d212d"/><path id="gn" d="m50.2,27c0,1.5-.8,1.2-2,1.2,0-.2-8.5.9-8.6.9-.5,0-.9-.3-1-.8,0-.5.3-.9.7-1,2.8-.4,7.9-.9,8.2-.9,2.4-.2,2.7-.3,2.7.5Z" fill="#1d212d"/><path id="go" d="m34.3,153.3c3.1-1.5,4.5-3.8,5.3-2.6-.2,1.3-5.8,4.2-6.8,4.8-.1,0-7.5,4.8-9.1,5.7-.7.3-1-.4-.6-.8.7-.6,2.2-1.7,4.5-3.3.5-.3,1.5-.7,1.8-1,.7-.6,1.5-1.1,2.3-1.5.9-.3,1.8-.8,2.6-1.3h0Z" fill="#1d212d"/><path id="gp" d="m32.6,145.5c.2,0,.3,0,.5,0,.1,0,.2.3.2.4,0,1-1.2.8-4,2.5-1.5.9-1.8.4-2.4,1-1.2,1-6.6,3.8-6.9,4.1-1.4,1.5-3.1,1.5-3.6,2.4-.1.2-.5.2-.8.3-1.2.1.2-2.1,1.8-2.5s1.7-1.3,2.4-1.5c2-.7,3.1-1.9,5-2.7.7-.3,1.2-1.4,2.8-1.6.4,0,3.7-1.7,5.1-2.4Z" fill="#1d212d"/><path id="gq" d="m33,32.5c.1,2.1.8,5.2-.8,5.2-.8.1-1.7.3-2.5.5-4,.5-7.9.8-11.9.7-.9-.2-.8-.4-1-8.6-.2-7.2-.8-7.1,2.4-7.5,1.1-.1,6.3-.6,8.3-.7,6.7-.3,4.8-1.5,5.5,10.2Zm-14.6,5.2c2-.2,13.4-.6,13.3-1.6,0-.8,0-1.7,0-2.3,0,0-.5-8.4-.7-9.4-.1-.9-1-.6-1.9-.6s-10.5.6-11.3.8c-.6.2-.3.4-.2,1.5.3,5.7.2,10,.6,11.7Z" fill="#1d212d"/><path id="gr" d="m22,156.9c-.7.9-3,2.6-3,1.3,0-1.3,1.4-1,2.3-2.3.6-.7,1-.4,4.3-2.6.8-.6,1.2-1.1,1.9-.8,2.3,1-4.7,3.4-5.5,4.4Z" fill="#1d212d"/><path id="gs" d="m233.2,191.9c-.4-9.3.4-20.3-1.6-30.6-1.9-9.9-1.1-3.5-1.8-10.3-.8-7.9-4.1-14.8-5.5-24.5-.7-4.7-.2-14.2-3.7-22.8-1.5-3.9-1.9-9.7-8.8-18.5-1-1.6-1.8-4.3-6-8-2.4-2.1-8.2-4.6-11-4.6s-1.1.1-1.2-.3c-.3-.7-.5-1.4-.7-2.2,0-.7-.1-1.4-.5-2-.4-1.5-1.1-3.2-2.6-2.9-3.8.8-3.5,1.3-3.7,1.1-.9-.9-.4-.7,0-1.5.1-.2.1-.5.3-.7.3-.2,2.8.3,3.2-4,0-1.1.4-.8,1.2-1.2,1-.7,1.9-1.6,2.4-2.7.2-1,.4-2,.5-3,.1-.8.1-.2.8-.6.7-.4,1.7-.3,2.7-.8,1.7-.8,3.1-2.1,4-3.8.6-1.3,1-2.6,1.2-4.1,0-1.4.5-2,.8-4.5,0-1.5,0-3,.4-4.4.2-1.1,0-2.3-.4-3.3-1.6-3-2.2-.2-1.9-3.9,0-.7,0-1.4-.4-2.1-.5-1,.1-1.5,0-2.6-.1-1.5-.4-4.2-1.6-5.2-1.4-1.3-1.7-1.6-1.6-2.2,0-.9-.3-1.9-.9-2.6-1.7-2.1-3.1-2.3-4-3.3-1.6-1.7-3.1-1.8-4.8-3.1-2.5-1.9-2.8-1.6-7.1-2-2-.2-4.6-3.4-10.9-.4-1.8.8-3-.6-6.4.3-1.5.4-2.5,1.9-4.6,1.7-1.7,0-2.9.8-4.6,2-.6.4-1.3-.4-2.7,1.1-.1.1-.2.2-.3,0-.5-.9-2.5-.6-2.4-1.2.2-.7.3-1.5.2-2.3-.3-.7-1.6-.4-2.1-.2s-1.2.4-1.7.6c-1,.5-1.8,1.3-2.4,2.2-.2-.4,0-3-1.4-2.3-1.8.8-3.3,1.8-3.8,3.7-.3.9-.5,1.8-.6,2.7,0,.4-.1.9-.2,1.3-.8-.3-.8-1.3-1.7-.8-1.4.9-1.4,3.3-1.4,4,0,1,.3,2,.6,2.9.5,2.1,1.7,2.2,1.1,2.5-1.6.7,1.3,4.6,3.7,4.6.2,0,.1.1-.6,2.3-.3,1.4-.7,2.7-1.3,4-.2.6-1.3.3-1.6,1.4-.4,1.5.5,1.7.6,2.5,0,.8-.2,1.7-.5,2.5-.2.6-3.1-.7-3.6.8-.6,2.5-.2,5,.9,7.3.3.6,1,.5.6,1-1.9,2.4-.1,5.2,1.5,5.3.2,0,.1.1.3,1.7.2,2.1.7,3.3.8,4.3.1,1.2.2,3.1.4,3.8,0,.3,0,.2-.2.1-1.1-.9-2.2-1.7-3.4-2.5-2.4-2.4-5.2-2.1-6.8,1-.8,1.8-2.4.9-3.2,2.5-.5.7-.8,1.5-.9,2.4,0,1.3-.2,1.3-.5,1.8-2.9,3.3-.6,3.6-1.3,5.7-1,3.2-.7,3.8,1.2,7.8.8,1.7,1.8,3.4,2.8,4.9.4.3,1.1.9.6,1.2-.8.9-1.5,1.9-2,3.1-6,10.7,5.8,11.2-2.8,9.7-13.4-2.3-13-2.8-23-4.4,2.3-1.2,12.7-4.2,15.5-5.8,1.9-1.1,2.2-2.5,2.5-5.9,0-1.1.3-75.8.2-79.8-.3-9.9-6.9-5.2-22.8-5.3-.8,0-76.9,4-87.3,6.9-2.4.6-4.6,1.4-5.2,3.7-.6,2.6.8,7.9.3,36.4,0,1.2.9,21.1.9,21.2-.2,1.5-.2,0,.1,3.9,0,27.8,1,34.2,1.1,38.5,0,9,.6,10.3,3.6,11.5,2.6,1.1,7,1.8,8.4,1.1,0,0,1.7-.3,2.4-.4.8,0,10.4-3.2,10.7-3.2.4,0,.7-.1,1-.2.7-.1.3,2.8,2.9,4.7,2.2,1.7,18.3,8,18.4,8.1,1.5.6,3.1.4,4.4-.4,2.8-1.3,25.6-10.7,25.7-10.8.4-.2.4-.2.5-.6.6-3.5,0-3-1.9-3.4-.9-.2-18.3-3.7-19.8-5.9-1.8-2.7.3-.3,35.3-13.4,1.9-.7,16.1,3,23.3,4.1,8.6,1.4,8.1.9,8.6,2.7.7,1.7,2.2,3,4,3.4.5,0-.1.3.8,2.8.4,1.1,1,2.1,1.8,2.9,1,1.6,1,1.6.9,1.8-1.9,3.7-2.2,8.9-3.9,13.1-1,2.5-1.9,5.1-2.4,5.8-2.2,2.9-6,7.4-6.6,10.7,0,.3-.2.1-.5,0-.5-.2-1.1-.2-1.6,0-1.7.6-2.5.3-2.4.2-1.5-2.4-4.4-3.4-7-2.4-.5.2-1.1-1.3-3-1.8-1.6-.4-.6-2-4.6-4.4.7-.6,12.1-5.7,15-7.2.1,0,.2-.1.3-.2,0,0,.1-.2.2-.3,0-.2,0-.5,0-.7-.5-1-.4-.1-12.3-6.1-6.3-3.2-8.7-3.5-8.9-3.6-.6,0-1.2.2-1.7.4-1.9.6-2,.9-2.1.6-1.8-6.8-2-9.6-2.7-10.8-1.1-2.1-3.6-.8-4.7-.5-3.2,1-1,4.7.4,11,.3,1.4-.9.3-1.2,1.3-.3.5-.4,1-.5,1.5,0,.6-.6-.5-2.7.2-.7.4-1.3,1-1.5,1.8-.5,1.6,1.6,0-11.8,6.4-10.2,4.9-10.7,3.4-11.7,8,0,1.2.4,2.3,1.2,3.1,1.5,1.3,4.2-.4,6-1.5.6-.3,0-.4,7.6,4.6,2.3,1.5,5.7,3.6,6.5,4.2,1.1.8,2,.2,4-.9.4-.2.5-.1,1.8.4,4.3,1.8,1.8-.2,1.3,4.7-.4,3.8,4.3,4.6,5.6,7,.6,1.1,1.5,2.1,2.5,2.7,1.8.7.2,1.1,2.2,4-.1,0-9.3,4.8-40.3,25-.5.3-.7.7-.4,1.1.5.5.8.1,1.7-.5,27.9-17.9,38.4-23.8,39.4-24.5.7-.5,1.2.6,2.4,1.1,2.5,1.2,3.3,4,5.1,6.2.1.1.1.2,0,.4-3.6,2.6-10.2,6.5-11.9,7.8-20.3,14.6-18.7,13.6-18.5,14.1.9,1.8,3.4-2.9,26.2-17.5,5.6-3.6,5.1-3.7,5.3-3.5,1.8,2,4.9,3.2,8.8,7.1,5.5,5.5,11.7,4.5,12.7,5.5.9.7,1.9,1.3,2.9,1.7,1.2.5.2.6,3.7.6.4,0,.8,0,1.1.1,1,.3,0,.1-.7,3,0,.2-.2.8.4.9,1.9.2,3.9.6,5.7,1.2,2.1,1.2,2.5,1.8,5,1.5,2.4-.3,5.2.8,7.3.7,2.6,0,5.1.2,7.6.6.5,0,1,0,1.5,0s4.6.3,11.5.6c1.6,0,3.1,0,4.7-.4,10.6-.4,27.4.8,33.8-1.7,1-.4,2.1-.5,3.2-.5,1.8-.5,3.6-.7,5.5-.7.1,0,4.1.2,4.2.3.5.2,1.1.2,1.6,0,1.9-.6,4.2-.5,6.8-.9.9-.2,1.6.2,2.4-.6.5-.4-.2-2.2-.3-4.6ZM4,112.2c-1.3-14.6-.9-31.9-1.2-39.7-.2-1.1-.3-2.3-.1-3.4.1-.7-.1-.8-.2-4,0-2,0-4-.3-6-.1-1.5-.7-38.8-.8-45.4,0-3.4,1.7-3.5,3.4-4-1.3,1.7.1,14.2.1,15.4.4,38.4.8,17,1.6,50.6,0,3,.6,45.4,3.2,47.2-6.7-1.3-5.1-2.9-5.8-10.6Zm75.9,7.6c0,.5,0,.9,0,1.4,0,.2.9-.4-21.6,9-4.8,2-5.7,2.8-7.1,2-.1,0-4.8-1.2-5.8-2.2-1.5-1.3-13.2-4.2-14.4-7.8,0-.2-.4-.4-.2-.7.1-.2.4-.2.7-.3s.5-.3.7-.2c.3.1.2.9,1.6,2.1,1.1.9,14.4,6,14.9,6.3,1.3.8,2.8,1,4.3.6,1.3-.5,25.5-10.1,25.6-10.1,1.8-.7,1.5-.4,1.5,0h0Zm-20.9-6.1c3,2,18.7,5.2,18.8,5.3-1.2.6-23.4,9.2-23.6,9.2-3.2,1.4-2.7,1.2-13.2-3.2-2.2-.9-6.1-2.1-7.1-3.4-.4-.5-1-1.2-.5-1.2.1,0,23.8-8.8,23.9-9,.4-.4.1,1.3,1.6,2.3h0Zm3.8-5.6c-5.1,1.1-29.4,9.8-35.2,11.2-.8.2-10.5,3.1-10.6,3.2-3.5.5-3.1.6-4.2.3-.6,0-1.2-.3-1.7-.7-2.5-2.9-2.6-30-2.6-30.4-.2-1.1-2.4-64.7-2-66.5.2-.9-1.6-8.7,0-14.9.2-5.1,93.9-7.3,100-9,.6,0,1.2-.1,1.8,0,7.7-.4,6,1.8,6.4,15.5.3,9.4.6,64.9-.7,71.6-.6,3.3-3.2,3.4-12.3,6.5-12,4.1-36,12.6-38.8,13.2h0Zm167.6,53.6c.1.6.1.6-.5.9-1.2.7-2.6,1.9-3.8,2-.7,0-.8.2-3.5,1.2-.6.2-.4.5-2-6.3-.6-1.5-1-3-1.1-4.5.7-4.4-2.9-2.3,5.7-6.4,4.4-2.1,1.7-2.9,5.2,13.1h0Zm-42.4,11.6c.3,0,.6-.1.9-.2,2.1,0,4.2-1.4,9.6-1.6.7,0,0,0,.8,4.6.1.7.7,5.8.7,6.8.2,1.4.5,1.2-1.9,1-10.8-1-9.3,2.1-9.1-1.3.2-3.1-.4-3.5-1-9.3h0Zm-13.2,3.5c.1-1,.1-2,0-3.1,0-.2,0-.2.2-.2,1.7.1-.6-.1,10.1-.3,2.1,0,1.3-.3,2,4,1.9,11.9-.4,5.4-11.4,7.5-.4,0-.6,0-.6-.2.5-5.6-.4-5.3-.3-7.7h0Zm-.6-16.6c0-.2,0-.3.2-.2.7,0,1.4,0,2.1,0,4.1.4,1.4.8,8.9-.1.2,0,.2,0,.3,1.3.4,2.1.5,4.3.3,6.4,0,.5.2,2,.2,2.1,0,.7,0,1.3,0,2,0,.3,0,.3-.3.4-.6,0-1.2,0-1.8,0-.2,0-.4,0-.6,0-7.5-.4-8.8.8-9-.3-.7-5.5.4-7-.4-11.5h0Zm-11.5,7.9c.6-1.5.8-3.2,1.1-4.2.8-2.6.2-3.4,1.1-5.4.2-.5.2.1,3.7,1.2,1.3.2,2.6.3,3.9.2,1,0,.5,6.1.5,6.1,0,6,.8,6.2,0,6.1-2,0-4-.2-5.9-.6-5.1-1.2-4.8-.4-4.8-1.8,0-.5.1-1.1.4-1.6h0Zm-29.1-7.7c-1.9-1.2-8.6-2.8-8.4-3.3,1.4-3.1,2.1-2.1,3.4-4.7,2.4-4.7,0-4.6,3.2-3.5,2.2.6,4.3,1.5,6.1,2.8,2.7,1.6,2.8,1.6,2.8,1.9-.8,2.1-2,4.1-3.4,5.8-.1.2,0,.5-.4.5-.1,0-.2.3-.3.5-1.4,2.7-.3,1.6-3-.1h0Zm1.7,3.1c-1.4,4.6-.4,4.2-1.5,4.7-1.5.6-2.8,1.7-3.7,3.1-.3.4-.3.3-1.7,1.5-.3.2-.4.2-.6,0-3.9-7.8-4.2-7.3-3.9-7.7,1-1.5.3-2.2.9-6.4,1.6.4,1.4.6,6.3,2.2,1.6.6,3.1,1.6,4.2,2.9h0Zm7.6-82.2c-.2-1.7-2.9-3-2.5-3.7.2-.7.4-1.4.5-2.1.7-3-.4.2,5,.1,4.4,0,8.5-2.2,9.7,1.5,1.5,4.8,2.9,5.1,4,8.1-.5,1-.8,2.1-.8,3.3,0,2,.3.7-2.2,2.8-2.1,1.8-3.6,2.2-6,3.5-.3.1-.3.2-.4-.1-.5-.8-.3-1.1-2.3-1.8-.6-.2-.9,0-1-.4-.4-1.7-1.3-1.8-1.6-2.7-.3-.8-.8-1.5-1.4-2.1-.6-.3-.4-.8-.9-2.2-.5-1.5-2.1-2.2-1.3-2.4.8-.2,1.4-.9,1.4-1.8h0Zm-3-6.3c-.6,2.7-.3,1.6-.9,1.2-.3-.2-.6-.6-.5-1-.2-.9-.5-1.8-1-2.6-.2-.4-.3-.6,0-.6,1.5,0,1.7-.7,1.8-.4.1.2.9,1.5,1,1.6-.3.6-.4,1.2-.5,1.8h0Zm74.3,45.2c-1.7,1-1.2.4-3.3,1.2-1,.3-2,.7-3,1.1-1.8.8-1.9,1-1.9.6-.4-3.5-1.2-5.1-1.2-7.4,0-.9-.2-1.9-.5-2.8-.3-1.1-.5-.6,1.6-1.8.8-.5,5.9-3.8,5.9-2.9,0,2.1,1.8,5.3,2,8.6-.1,1.1.8,3.2.4,3.4h0Zm-41.8,38.3c-1.2-.2-2.9.6-6.2-1.1-.9-.4-.9-.2.5-3.4,1.4-2.7,2.5-5.6,3.3-8.5,0-.3.1-.3.4-.2.8,0,1.5.2,2.2.4,1,.3.8-.5.3,6.6-.3,4.6.2,6.3-.5,6.2h0Zm-23.3-18.2c-.5-.4-.5,0,.8-4.3,1.6-5.5,2.1-4.6,2.5-5.6.3-.6.7-1.2,1.1-1.7,0-.1.2-.1.3,0,3,1.5,5.7,2.1,7.9,4.2.8.8,1.5.8,1.2,1.4-.7,1.8-1.5,3.6-2.5,5.2-1,1.9-1.9,3.9-2.6,5.9-4.4-3.5-5-2-8.6-5.1h0Zm8.2,6.7c-.7,3.1-1.8,6-3.3,8.8-1.8,3.7.9,5.2-3.5,1.9-4-3-2.1-2.3-7.8-4.7,0,0,0,0-.1,0,0,0-.1-.1,0-.2,0,0,0,0,0-.1,3.7-8.7,2.4-4.3,5-10.2.5-1.2.5-1.2.7-1,3.9,3.2,2,.6,7.4,4.1.6.4,1.2.9,1.6,1.5h0Zm15.7-62.6c-.8.6-1.7,1.2-2.7,1.6-.6.2-1.3.4-1.9.6-.3.1-.2-.2-1-1.4-.6-.9-.7-.8-.5-1,1.6-1.5,1.4-.7,3.6-2.9.5-.5.4-.6.7,0,.7,1,1.3,2.1,1.8,3.2h0Zm-1-4.5c.3-.7,4.2-2.3,4.2-2.3.2-.1.3,0,.6.6,1.1,2.3,1.2,2.3.9,2.5-1.3.8-2.5,1.8-3.7,2.8-.4-.3-.3-1.2-1.2-2.2-.3-.4-.6-.9-.8-1.4h0Zm1,6.2c3-2.4,4.2-3.7,6.7-5,.9-.5,1.4-.7,1.6-.5,1.7,1.2,3.3,2.7,4.5,4.4-.4.4-2.8,1.8-3.4,2.3-1.3.9-2.7,1.7-4.1,2.3-1.1.6-.4.5-3.6-1.9-1.9-1.5-2-1.4-1.8-1.6h0Zm23.5,55.3h0c-.1-7.7-.4-5.2-.4-9.6,0-2.2-.6-2,0-2.2,8.1-3,8.4-4.3,8.5-3.7.5,2.6.8,5.2,1.1,7.8.1,4.8.4,5,.1,5.2,0,0-6.8,2.8-6.8,2.8-.7.2-1.5.3-2.2.4-.5,0,0-.5-.3-.5h0Zm5.7-16c-1,.6-2.1,1.2-3.3,1.6-3.6,1.5-3.3,1.3-3.4.9-.7-2.9-.7-7.3-1.5-10-.2-.7-.2-.8.4-1.1,2.3-1.2.8-1.2,8.1-3.9.9-.3.7,3.2,1.5,6.9,1,4.4.4,2.5.7,3.9-.2.4.4,0-2.6,1.7h0Zm0-13.7c-3.1,1-6,2.4-8.6,4.2-.1-.1-.2-.3-.3-.5-.6-2.3-1.2-2.4-2.2-7.2-.2-1-.5-1,0-1.3,6.6-4.1,7.4-5.1,7.7-4.6s2.6,6.2,2.6,6.2c1.6,3.9.9,2.9.7,3.2h0Zm-4.4-10.7h0c-2,1-4.8,3.4-6,3.9-.2.4-.7.4-1.1.7-.2,0-.3.2-.5.2,0,0-.2-.1-.2-.2-.8-1.5-1.6-3-2.6-4.4-1.9-3.6-2.4-3.5-1.8-3.8,1.9-1,5.4-1.9,7.4-3.5.4-.3.1-.3,4,5.4,1.1,1.6,1.3,1.5.8,1.8h0Zm-28.8,6.8c-1-1.7-3.8-2.7-1.9-3,.3,0,.5-.2.8-.4,1.7-.6,3.5-1,5.4-1.2.5.3.9.7,1.3,1.1,1,1,1.9,2.1,2.6,3.4,1.7,2.6,1.8,2,.2,2.3-1.3.3-2.5.8-3.7,1.4-1.4.6-1.2.9-1.6.4-1.9-2.5-2.6-3.1-3-3.9h0Zm1.2,5c-2.5,5.2-1.9,7.7-2.7,7-1.2-1.2-2.5-2.2-3.9-3.2-1.1-.9-2.2-1.7-3.4-2.4-.3-.1-.3-.2-.2-.5.8-2.5,1.8-5.7,3.9-7.6.2-.2.4-.4.7-.3.2-.1.4,0,.5.1,1.2,1,2.3,2.1,3.2,3.4.6,1,1.4,1.4,1.5,2s.7.4.2,1.4h0Zm3.2,0c1.6-.8,3.2-1.4,5-1.7.7,0,.8-.5,1.3.6,1.9,4.5,2.1,5.1,2.6,8.3,0,.3-.4.1-6.7,1.5-.6.1-.1,0-1-3.3-1.5-5.5-2-4.9-1.2-5.4h0Zm2.8-8.9c-.4-.5-1.5-1.2-1-1.3.9-.2,1.8-.6,2.6-1,1.1-.5,1,0,6.2-3.4.2-.1,0-.3,2.3,3.5,1,1.6,1.9,3.2,2.7,4.8-1.1.6-2.3,1.2-3.6,1.5-.5.2-1,.2-1.5.3-5.9,1.6-2.4,2-7.7-4.5h0Zm8.9-7.9c-.2,0-.5.5-.9,0-.9-1.2-2-2.2-3.2-2.9-.9-.5-1.7-1.2-2.4-1.9-.2-.2,0,0,3.3-1.9.8-.4,3.7-2.6,4.9-3.3,1.7,1.4,2.1,2.7,3.4,4.1.7.7,1.2,1.5,1.8,2.3.6.7-2.6,1.9-6.8,3.6h0Zm-6-2.5c.8.8,2.1.8,4.1,3.4-.2.3-4.5,2.8-4.6,2.9-1.4.3-2.5,1.5-4.7,1.7-.5,0-2-1.5-2.6-2.5-.2-.3-2.8-3.1-3-3.2-.6-.5,0,0,4-2,4.8-2.4,2.4-1.3,4.7-2.2.4-.1.3.2,2.1,1.9h0Zm-9.4,5.6c.9.8.9,1.5,2.1,2.6.6.6-1.4-.2-5.4,1.8-.9.4-1.2.7-1.5.5-1.7-1.1-2.3-.6-5-2.4-.6-.4-.4-.3-1.2-.8,1.5-1.5,5.4-4.6,7.6-5,1.3.9,2.4,2,3.5,3.2h0Zm-7.2,5.2c1.6.5,0,0-1.8,4-2.6,5.6-1.2,5.2-3.5,4.6-5.9-1.6-4.2-2.5-8-3.7-.3,0-.4-.2-.2-.5,2.3-2.6,2.4-4,6.6-5.9.7-.2,1.3-.6,1.8-1,.4-.4,1.8,1.5,5.1,2.5h0Zm-2.9,11c2.7,1.8,5.3,3.8,7.7,6-1.9,7.1-2.4,5-3.9,10.3-.1.4-.1.7-.4.4-5.1-4.1-9.4-4.3-8.9-5.3.6-1.4.9-2.8,1.6-4.1,1-1.9,3-4.2,3.9-7.3h0Zm3.6,20.8c.7-1.5.6-1.8.9-1.5,1.7,1.5,4.2,3.4,5,5.7-.3,4.2-1.5,8.4-3.5,12.1-.1.2-.2.2-.4,0-.5-.5-4.9-4.9-6.2-6-.9-.8,2.7-6.7,4.2-10.3h0Zm7.3,7.9c-.8,0,0-1.1,0-3,0-.5.1-.9.2-1.4,0-1,.1-2.1.4-3,1.1-2.8.3-1.8,1.5,5.7.5,2.9.8,1.9-2.1,1.7h0Zm-1.1-6.5c0,.6-.4,0-.9-.7-.8-.8-1.6-1.6-2.4-2.3-1.2-1.3-1.8-1.2-1.6-1.7,1.7-6,1.2-2.3,3.8-9.9.1-.3.1-.1,2,1.9,1,.9,1.9,2,2.6,3.2.1,2.1-3.1,7.1-3.4,9.6h0Zm1.9-13.6c-2.2-2.4-2.7-2.6-2.5-3.8.5-2.2,1.2-4.3,2.2-6.3.9-2,2.8,7.8,2.7,8,0,1.5-.2,2.9-.5,4.4-.4-.3.5.5-2-2.2h0Zm3.1,3.7c.4-1.5.6-3.1.6-4.6-.1-.8-.3-.4,6.6-1.7,1.1-.2.9,0,1.3,3.4,0,2.1.3,4.2.6,6.3,0,.4,0,.5-2.6.9-1.1.2-2.2.3-3.4.4-2.4.3-2.5.4-3.2.3-2.3-.4-1.2,1.2.2-4.9h0Zm8.8-9.1c-.9-4.8-3.2-7.9-2.5-8,.8,0,1.6-.3,2.3-.6,1.4-.3,2.7-.7,4.1-1.1,3.4-1.5,2-1.5,3.3,2.7.1.4,1.4,4.3,1.8,5-2.8,1.7-3.7,1.9-8.4,3.2-.5.1-.4-.3-.5-1.2h0Zm1.2,2.3c8.9-2.2,7.9-3.6,8.1-2.8,1.1,4.8.4,3.6,1.4,9.1.2,1.3.2,1.4,0,1.4,0,0-2.2,0-2.6,0-1.1,0-2.4.8-3.8,1.6-.8.3-1.6.5-2.4.7-.5.1-.7.7-1-5.2,0-4.8-1.2-4.4.2-4.7h0Zm.8,11.3c4.3-.8,4.6-2.5,6.5-2.2,2.6,0,2.6-.2,2.6,0,.6,4.7.7,11.6.7,11.6,0,.6.2.4-2.6.6-3.9.2-3.6.9-6.1,1.2-.6-7.9-.6-4.5-.9-6.9-.5-4.2-.6-4.2-.1-4.3h0Zm1.3,15.6c-.1-.9-.2-1.8,0-2.7.1-.3.5-.2.7-.3,1.5-.6,3.1-.9,4.7-1.1,3.3,0,3.3-.4,3.4,0,.5,4,1.2,8,2.1,11.9,0,.9,0,.7-.6.8-2.1.3-4.7-.5-6.5.2-3.9,1.4-3,1.1-3.7,1.3-.6-3.4,0-4.4.1-10.1h0Zm9.9-4.2c0-.4.5-.5,1-.5,3.3-.3,8.4-3.9,8.4-2.5,0,2.4-1.1,2.7,1,12.8,0,.4.1.6-.1.7-1,.4-2,.7-3.1.9-.4,0-.7.1-1,.3-.4.2-.6.2-3.5.8-.3,0-.4,0-.5-.4-.1-1.9-1.6-6.7-2.1-12.2h0Zm10.6-1.6c0-.3,0-.6.2-2.2,0-.3.6-.4.9-.4,6.1-1.1,4.1-1.3,8.3-2.8,0,.2,0,.3,0,.5.2,11.4,3.6,14.2-2.3,14.4-2.2,0-5.9,2.6-6,1.8-.1-1.5-1.9-8.6-1.1-11.2h0Zm6.7-5.9c-1.6.8-3.2,1.4-5,1.7-2.8.5-.5,2.1-2.9-12.6-.2-1.3,6.3-2.9,8.2-3.6.2,0,.3,0,.3.2,0,2.5,1.6,9.7,2,12.6.2.7-.9.7-2.6,1.7h0Zm-7.7-26.9c-3.7,2.4-1.8,1.9-4-2.5-.6-1.3-1-2.6-1.6-3.9s-1-1.4-.4-1.7c5-2.5,3.2-2.7,7-3.7.6.7,1.3,3,2.5,5,.6,1.2,1.1,2.5,1.5,3.8.3.7-.3,0-5.1,2.9h0Zm-3.9-10.8c-.9.6-1.9,1.1-2.9,1.6-.2.1,0,.1-2-2.8-.6-.7-1.2-1.5-1.6-2.3-1.2-2.1-1.6-1.9-1.1-2.3,2-1.4,3-2.8,5.7-4,1.2-.5,1.3-1.1,1.6-.6,0,.1,3,5,3.2,5.5.4.9.9,1.8,1.5,2.6-2.4.9-.7-.2-4.4,2.3h0Zm-6.1-8.7c-.8.7-1.6,1.3-2.4,1.8-.9.6-1-.9-5.6-6.1-.3-.3-.5-.4-.2-.6,0,0,1.8-1.3,2.1-1.5.9-.7,1.9-1.3,3-1.6,1.7-.8,2-1.2,2.1-1.1.6.6,1.3,1.1,2,1.6,1.4,1.1,2.6,2.4,3.6,3.9.9,1.1-1.5.8-4.6,3.5h0Zm-6.7-7.7c-4.6,3.5-1,1.9-7-2.1-.4-.3-.2-.1,1.7-1.4,1.2-1,2.6-1.7,4.1-2.2,1.7.4,4.6,2.8,5.4,3.4.6.5-2.4,1.1-4.1,2.4h0Zm-3.4-6.4c-1.9.7-2.1,1.6-2.3,1.2-.3-.4-.5-.9-.6-1.4,0-.4-.2-.7-.4-1-.4-.8.3-.2,3.2-1.7.1,0,.3,0,.4-.2.4-.2.3-.2.6.2.2.7.5,1.3.8,1.9,0,0,0,.1,0,.2-.2,0-1.2.6-1.7.8h0Zm-7.1,4.1c-.3.2-.3,0-1.1-1.9-.4-.9-.7-1.1-.4-1.4.7-.5,1.6-.9,2.4-1.2,1.2-.4,1.3-1.4,2.1.7.7,2.4,2.2,1-3,3.7h0Zm.3-5.6c-4.7,1.8-1,2.1-4.9-.6-.5-.4-.4-.5,0-.7,1.3-.8,2.7-1.4,4.2-1.7.7.8.9.5,2,2.2.1.2-1,.6-1.2.7h0Zm-3.8,2.2c-.5.3-1.1.6-1.7.8-2.9,1.1-2.5,2-3.1,1.5-2.3-2-3.4-1.1-2.4-2.3.5-.7,1.2-1.2,2-1.5,2.6-1,2.5-1.2,2.8-.9,0,0,2.2,2.2,2.4,2.5h0Zm-7,2.3c.5.3,1,.6,1.5,1.1-.6,1.1-2.6,2.1-4.1,3.5-.2.1-.3.2-.4,0-.5-.4-1-.8-1.6-1.2-.5-.4-1.1-.3-.6-.9.5-.8,1.1-1.4,1.8-2,0,0,.2-.1.2-.2.2-.7,1.1-.8,1.2-1,.5-.5.7.2,2,.7h0Zm-4.3,8.9c-.2-.5.4-1,1.3-2.2.2-.3.5,0,.8.7.4.7.5.5-2.1,1.5h0Zm.2-3.5c.2.2.4.2-.5,1.3-1.1,1.3-.8,2.8-1.6,3-2.2.7-2.3,1-2.3.2,0-1.5.5-2.9,1.4-4.1,1.4-1.8.6-2.6,3.1-.5h0Zm-4.5,6.7c10.4-4,5.2-2.2,10.3-3.3,1.8-.4.2-1.9,4.9,2.1.8.6,1.2.8.8,1-3.6,1.3-6.8,3.7-9.3,3.9-1.3-.7-2.6-1.4-3.9-2.2-2.1-1.3-3.4-1.2-2.8-1.4h0Zm4.5,4c.4.2-.2.3-1.4.9-1.9,1.3-3.7,2.7-5.3,4.3-.5.7-2.1-1.6-10.2.2,3.7-5.4,5.7-4.7,8.4-6.8,3-2.3,3.7-1.5,8.6,1.5h0Zm-16.5-.3c.5.2.6.5,1.1,1.4,0,0,0,.1-.1.2-1.1,1.3-2,2.6-2.9,4-.4.4,0,.4-1.5-1.3-.2-.2-.2-.3.7-1.6,2.1-3,.8-3.4,2.8-2.6h0Zm-3.1,6.6c0,.1,0,.2,0,.3-6.6,5.5-5.4,8.7-6.2,7.7-2-3.2-1.8-2.5.4-4.2.6-.4.7-.6,2.9-3.4,1.9-2.5,1.4-2.6,2.9-.4h0Zm-4,7.2c.8-3,4-4.4,5.8-6.8,3.1,0,5.7-1.5,9.6-.3-1.1,1-4.3,1-8.1,6.8-1.1,1.7.5.7-6,.5-.9,0-1.4.4-1.2-.2h0Zm6.8,2.7c.3-.4.1-.8,1.2-.4,2.2.7,1.7,1.2,3.5,2,5,2.3,6.3,1.7,5.8,2.5.2.8-2.7,5.2-3.2,6-.9,1.6-1.6,3.4-2.1,5.2-.1.4,0,.4-1.9-.5-12.6-5.5-10.1-.5-7.2-7,.9-2.7,2.2-5.4,3.8-7.8h0Zm.3,15c1.5.5,2.9,1.1,4.2,1.8-.6,1.1,0-.2-1.1,1.8-3,4.9-3.1,10-4,9.6-6-2.4-.3.2-9-3.4-1.4-.6-1.6-.2-1.4-.8,5.1-14.7,1.5-11.6,11.3-9h0Zm-5.7,12.9c4.4,1.5,4.7,1.5,4.5,2-.4,1.1-.9,2.1-1.5,3.1-1.6,2.6-3,5.3-4.3,8-.9-.3-4.5-3-6.7-3.7-4.7-1.5-4.2-1.3-4-1.9.8-2.7,2.2-5.3,4-7.4,2.6-3.6-.4-2.9,7.9,0h0Zm-5.9,25.2c.1-.4,2.6,1.1,3,1.3.2,0,0,0,0,.1-3.3,1.5-3.5,2.1-3.5,1.1,0-.9.2-1.7.5-2.6h0Zm1.6-.9c-.8-.4-1.1-.2-1-.6.6-1.9,1.7-2.9,2.8-4.5.5-.7,1.1-1.9,1.3-2.2.8-1.3.7-2,1.1-1.8,1.9,1.2,2.4.5,5.5,3,1.5,1.3,3.1,2.4,4.7,3.5.3.2.1.3-.8,2.4-.9,1.9-.8,2.2-1.1,2.1-4.2-1.2-2.5-.4-4.9-.7-1.5,0-2.9.2-4.3.6-.4,0,0,0-3.3-1.8h0Zm15.2-.8c.5-1.2.2-1.1,1.7.1.6.5.5.8,1.5,1.8,3.6,3.4,1.2.7,4,4.4,0,0,0,.2-1,2.7,0,.1,0,.2-.2,0-.3-.4-.7-.7-1.1-1-1.1-1.3-1.8-2.6-3.1-3.1-1.2-.2-2.3-.8-3.3-1.6-.2-.2-.1-.1,1.3-3.4h0Zm7.2,11.5c.1-.6.3-1.2.5-1.9.1-.7.9,2.8-.4,7.9-.7,3-.4,3-.7,2.9-3.1-.5-3.2-.3-2.9-.9.6-1.4.7-1.5.9-1.7,1.5-1.8,2.5-4,2.7-6.4h0Zm.7-6.6c-.6-.5-.6-.4-.6-.5-.2-1.1-3.4-3.4-3.8-4.1-.4-.7-1-1.3-1.6-1.8-.4-.4-1.1-.4-1-.8.7-2.2,0-2.1,1-4.2,1.1-1.9,1.9-4,2.5-6.1.6-2.1.5-2.1.7-1.9,2.3,1.9,4.4,4,6.4,6.3-.9,3-2.1,3.7-2.3,7.2-.3,2-.8,4-1.5,5.9h0Zm11.8-32.7c0-.9-.2-.9.4-.9,3.4.4,2-.1,4.3-.1,7.6-.1,5.7-3.1,6.5,3,.4,1.7.6,3.4.8,5.1.1,2.3.2,2.3-.2,2.3-5.7,1.2-1.9.8-10.2.7-.4,0-.3,0-.7-2.4-.1-.8-1-6.5-.9-7.7h0Zm1,20.4c0-2.7.5-4.3.5-7.1,0-1.7,0-1.9.2-2,1.1-.5,4.2,1,10.1-.7.5-.1.3-.4.5,3.5-.2,4.7-.7,5.5-.1,9.1,0,.3,0,.4-.3.5-2.7.6-5.6.7-8.3.2-3.5-.2-2.5,1.1-2.6-3.5h0Zm13.5,16.5c-.1-5.2-.3-2.8-.1-5.1.2-2.6-.9-7-.4-7.1.4,0,4-1.4,4-1.4,1.3-.5,3.9.5,6.2-.1.3,0,.6-1.3,1.1,9.2.3,4.9,1.3,2.2-4.8,3.6-5.6,1.4-5.2,1-5.7,1.1-.2,0-.3,0-.3-.3h0Zm11.4-13.1c0-.7,0-.7.6-.8,2.1-.4,4.1-.8,6.1-1.4,2-.5,1.4-1.5,2,2.1.3,2.1,0,2.9.2,5.6.2,2.9,2,5.2,1,5.2-1.1,0-2.2.3-3.3.3s-2.1.6-3.8.6c-3.4,0-1.2,1.7-2.9-11.6h0Zm10-3.5c1.3-.4,2.6-.9,3.8-1.5,1.8-.8,2.7-.2,4.5-1,.2,0,.6-.3.6,0,0,2.4.4,4.7,1.1,7,.4,1,.2.9,1.7,6.5.1.5,0,.6-.4.6-.9,0-1.7.2-2.6.3-1.6.4-3.2.9-4.6,1.6-.4.1-2,.4-2,.4-.2,0-.3,0-.4-.2-.2-2-1.3-2.4-1.3-5.8,0-7.4-1.2-7.5-.3-7.8h0Zm15.3-21.1c2.4,7.8.4,1.5,3.2,11.9.2.7-2.3,1-3.6,2-.8.6-1,.2-3.9,1.9-1.1.6-.6,2.1-2-13.2,0-.4,0-.5,2.6-1.3,3.8-1.2,3.5-2,3.7-1.3h0Zm-.9-5c.6,3.5.8,3.2.1,3.6-.8.5-1.7,1-2.6,1.2-3.4.6-2.9,1.8-3.1,0,0-.7-1.2-5.9-2-12.2-.2-1.2,3.4-1.3,6.4-3.8.2-.2.6,8.4,1.1,11.2h0Zm-3.6-23.9c1.2,3.5,2,7.1,2.5,10.8,0,.2,0,.4-.3.5-.9.4-1,1-1.9,1.3-.3.1,0,0-2.2,1-2.2,1-2.2,1.1-2.2.7-.2-.8-.4-1.7-.4-2.5.2-2-1.1-3.7-2.1-9,0-.2.3-.4.5-.4,2.8-1,5.7-3.6,6.2-2.4h0Zm-3.5-9.9c1.7,3.7.6,1.4,2.7,8.2,0,0-4.9,2.6-6,3-.5.2.5.5-4.1-8.9-.2-.3,0-.2,2.7-1.9,4.6-2.8,3.4-3.5,4.8-.4h0Zm-5.9-9.4c.7,1.3,1.5,1.4,3.7,5.7,0,.2.3.4.2.6,0,0-2.9,2-6.3,4-.9-.7-2.6-4.7-5-8.4,0-.2,0-.2,0-.3,3.3-1.8,1.1-1.2,5.9-3.2.3-.1.4,0,1.3,1.6h0Zm-7.2-8.5c3.3,2.3,6.1,5.6,5.2,5.8-1.9.7-3.6,1.6-5.2,2.8-.9.5-.9.6-1.3,0-3-4.3-6.1-5.2-5.5-5.6,3.1-2.2,3.8-2.9,5.4-3,.4,0,.9-.3,1.4,0h0Zm-10.6-2.6c3-1,7.9,1.2,8,1.3-1.9.7-3.7,1.8-5.2,3.2-.8.6,0,0-5.7-3,0,0-.1,0-.2-.2,1-.5,2-1,3-1.3h0Zm-1-3.5c.6,2.8,2.2,1.4-2.4,3.3-.6.3-.5-.8-1.1-1.7-.4-.7.4-.4,1.7-1.2,1.4-.8,1.6-1,1.7-.4h0Zm-5.2-2.9c1.1-.5,3.9-1.8,4.2-.6.7,2.4,1.2,1.6-.9,2.5-.6.5-1.3.8-2.1.9-.1,0-.2,0-.3-.5-.5-1.9-1.5-2.1-.9-2.3h0Zm-.3,3.5c-4.6,1.9-4.4,1.7-4.9.9-.9-1.8-3.1-1,.7-2.7.8,0,1.6-.3,2.4-.7.7-.4.8-.4,1.2.3.3.5,1.2,2.1.5,2.2h0Zm5.9-15.6c-2.3,4.2-3-.2-3.9,5.6-.3.8-1.1,1.4-2,1.3-.3,0-.7.1-.8.5,0,0,0,0,0,0-.5,2.2-1.4,1.3-3,2-.2,0-.4,0-.5-.2-.1-.5-1.2-.3-1.6,0-1,.8-1.5.9-2.2.6-.9-.4-1.9-.2-2.5.5-.5.7-1,1.3-1.6,1.9-1.2.9-2.9.6-3.8-.5,0,0,0,0,0,0-.2-.4-.7-.6-1.1-.4-.1,0-.2.1-.3.2-1.2,1.3-1.5,1.7-2,1.3-1.2-.7-2-1.9-2.4-3.2,0-.2-.2-.5-.5-.5-.7,0-.5-.1-1.6,1.1-.2.3-.2.3-.5,0-1.2-.8-2-2.1-1.4-3.4.6-1.4,0-5.8-1.8-3.2-.4.5-.7.6-1.1,0-2.9-3.3-.3-3.9-.3-8.7,0-1.4-.1-2.8-.5-4.1-.2-1.5-1.2-2.7-2.5-3.2-1.2-.7-2.6-.8-4-.5-.3.1-.7.2-1,.2-.6.4-2.1-.5-3.3-.3-.2,0-.3-.2-.5,0-.1-.3-.4,0-.5-.2-1-.4-.8-.8-.8-1.1,0-1.6,1.4-1.7,1.4-3.2,0-1.9-1.4-3,.8-4.8,2.5-2-1-3.6.6-5.4,0,0,.2,0,.2,0,0,.4.3.5.5.8,3,4.8,4.5,3.2,5.7,5.4.8,2,2.3,3.6,4.3,4.6.8.5,1,1.1,2,2.3,2.3,3,6.5,3.7,8.9,5.5,4.5,3.5,6,2.4,7.5,3.4,3.1,2.1,3.3,2.2,4.8,2.5,3.6.7,4.3,1,5.6.9.6,0,3.2-.2,4.1-.2,1.3,0,2.1-1,2,.3,0,.7-.1,1.4-.4,2h0Zm-46.3-8.2c-.2.6-.6,1.1-1.2.9-.9,0-2.1-.6-1.7-1.7.2-.5.4-1.1.7-1.5.3-.6,0-.5,3.2-.1.4,0,0,0-1,2.5h0Zm38.8-14.6c5.5,2.2,6.7-.9,6.9,2.5.3,5.2-1.7,5.9-1.7,7.5,0,2.5,0,1.8-.1,2.4-.9,2.6-1.1,3.1-1.5,3.6-.6.7.3,1.1-.4,2.1s-.5,1.2-1.2,1.2c-1.4.1-2.9,0-4.3-.5-2-.4-2.4-.3-4.2-1.6-.2-.2-.2-.2,0-.4,1.2-1.3.8-1.5,2.4-4.2.4-.7.7-1.4.9-2.1.5-2-.6.3,2-4.4.7-1,1.1-2.2,1.2-3.5-.1-2.6-.3-2.6,0-2.5h0Zm-1.2,3.4c-1,2.9-3.1,5.4-3,5.9.1,1.7-1.1,2.5-2.3,5.3-.2.4-1.1,1.7-1.5,1.5-1.7-1-2.8-.5-4.6-1.5-.7-.4-1.5-.9-2.2-1.3-.6-.3.4-.5,2.2-3.7.9-1.7-.2-1.2,1.7-4.2,5.2-8.4-.1-9.5,5.3-6.9,1.3.6,2.6.9,4,1,.5,0,.3.2.6,2-.2.6.1,1.3,0,1.9h0Zm-8.3-5.4c-.1,2.1.1,2.1-1.6,5.5-1.3,2.4-1.7,2.3-2.1,3.9,0,.7-.3,1.4-.6,2-.4.6-1.6,2.3-1.9,2.8s.1.2-3.1-1.1c-1.4-.5-2.7-1.3-3.9-2.2-.4-.3-.3-.3.8-2.1,1-1.5.7-2.4,1.2-3.4,1.9-3.4,1.3-1.6,4.7-9.5.1-.4.3-.2,1.8.5,5.7,2.5,4.8,1.9,4.8,3.6h0Zm-9.7-.1c-.8,1.8-1.7,3.5-2.7,5.2-.7,1.4,0,1.3-1.3,3.7-.1.4-.4.7-.7.9-2.7-3.9-3.5-2.3-5.5-5.6,0,0,0-.2,0-.3.5-1.7,1.2-3.3,2.2-4.9,1-1.9.8-2.1,2.1-5.5.6-1.1,1.3-2.2,2.1-3.2.2-.3.2-.2.5,0,.3.2.7.3,1,.5,1.1.9,2.1,1.9,3.1,3,.7.7,1,.8,1.6,1.5-.4,1-1.8,3.6-2.2,4.7h0Zm-6.4-8.2c-1.5,2.3-1.6,4.4-2.8,6.6-.8,1.2-1.4,2.5-1.8,3.8,0,.2-.2.6-.3.4-.9-1.5-4.5-1.9-4.5-3.9.2-2.5,1.2-5,2.7-7,.4-1,.6-2,.7-3,.6-1.5,1.5-2.7,2.8-3.7.6-.4.6-.9.9-.7,1.1.9.9,1.5,2.8,3.7,2,2.5,1.8.5-.4,3.9h0Zm36.4,26.5c-1.4,3.2-1.2,2.3-3.6,2.8-1.1.3-2.2.4-3.3.3.5-1.1.9-1.5.7-2.5,0-.4,0,0,1-2.6.5-1,.7-2.1.6-3.1-.1-.6,0-1.2.3-1.8,1.3-2.4,1.8-5.1,1.3-7.8,0-.3,0-.2.7-.2,2.4.3,4.3-1.2,4.6-.5.8,2.5,1.4,2.7-.5,7.6-.3.8.2.1-.6,1.9-.5,1.2,0,.8-.7,3.5-.2.9-.5,2-.6,2.3h0Zm5.7-17.1c1.8,1,.9,2.9.5,5.1-.2,1.2.6,2.5-.6,5.4-.2.6-.5,2.9-.9,4.1-.8,2.4-1.8,2.9-3.9,4.2-.5.3.4-1,.6-2.5.4-1.2.6-2.5.8-3.7,0-.9.4-1,.7-2.9.5-1.4.9-2.8,1.1-4.2,0-.7.4-1.1,0-1.9-.9-2.3-.9-2.5-.7-2.6,2.3-1.2,2.2-1.1,2.3-1.1h0Zm-44.4-23.4c1.7-1.1,2.7.2,5.1-1.3,4.7-2.9,4.8.6,10.4-2.1,1.8-.9,4.6-.3,6.1.4.7.4,1.5.7,2.3.9,3.2.3,4.3.2,5.3.9,1.1.8,2.2,1.6,3.5,2.2,1,.4,2,1,2.7,1.8,2.2,1.7,1.6.6,3.6,2.7.6.8.9,1.8.7,2.7,0,.7.6,1,1.3,1.8,1.4,1.5,1.1,1.3,1.5,2.6.3,1,.4,2,.3,3-.6,2.2.5,2.1.5,3.8,0,3.2-.1,2.7-1.5,3.6-1.4.7-2.9,1.2-4.5,1.3-2.8,0-1.2,0-3.6-.5-.9-.1-2,.9-5-.5-1.1-.5-2.3-.8-3.5-1-2.2-.2-6.6-2.8-9.6-4.2-5.7-2.5-3.5-1.5-7.4-5.2-1.9-1.8-3.4-1.4-6.1-6-1.3-2.2-2.9-1.8-3.8-4.3-.5-1.4.7-2,1.8-2.7Zm-3.5,1.8s0,0,0,0c0,0,0,0,0,0,0,0,0,0,0,.1,0,1.3.9,2.2,1.5,3.2.2.4.8.4.5.7-1,.7-1.8,1.6-2.4,2.5-2.6,4.1-.5,3.2-2.9,6.6-1,1.4-1.6,5.3-1.9,4.2-.3-1.9-.5-3.8-.5-5.7.2-.5.4-1,.5-1.6,0-1.7-.8-5.8,2.5-7.8,1.9-1.1,1.2-1.5,2.6-2.4h0Zm-16.9,13.9c-.7-1,.4-.6.8-.5,1.1.1.9-.7.2-1.2-2.1-1.4-2.8-4.6-2.3-7.1.4-1.8,2.2,1.7,3.1,3.4,1,1.9,2.3,1.1,1.5.1-2.1-2.5-1.9-6.1-.5-9,.4-.8,1.1-1.5,1.9-1.9,1.3-.9,0,7.1,1.2,6.4.7-.4-.1-2.5.9-4,.8-1.7,2.4-2.9,4.2-3.4.6-.2.6.8.5,1.3-.9,2.8-1.1,1.7-1.5,3.2,0,.3.5.5.9,0,1.6-1.9,1.5-1.7,2.7-1.4.8.2.5.5.7.8s-.2.2-.9.8c-4.6,4.2-1.7,7.2-3,9.6-.8,1.9.3,2.7.2,4.6,0,.3,0,.4-.4.4-1.1-.3-2.5.8-3.7.2-1.3-.7-1.8.4-2.8-.1-.7-.4-1.4.8-3.6-2.1Zm1.2,13.3c0-.3,0-.4.4-.3.3,0,3.2,2.3,3.4.5,0-.6,0-1.2-.5-1.6-.3-1-1.1-.6-1.7-1.4-.3-.5-.9-.3-.6-.8,1-2,1.2-5.9,2.5-6.3,1.5-.4,1.5.6,3.6,0,.6-.2,1,0,1.1-.2-.7,1.3-.7,2.9,0,4.2.3.5,0,.6-.9,1.5-1.1,1.1-1.4,2.8-.9,4.2.2.6.4,1,0,1.5-2.2,2.5-.7,3.5-1.4,3.5-.7,0-1.3-.1-2-.3,0,.1,0,.1-.1,0h0c-5.1-.9-3.3.2-2.9-4.6Zm-2.2,15.4c.1,0,.1,0,0,0h0c-.5-.2-.7-.7-.9-1s-.2-1.9.8-2.1c1.2-.3.9-1.5.1,3.1h0Zm.8-5.2c-1.7,1.6-2.7-2.2-2.6-4.5,0-.4.2-.5.4-.4.5,0,1,.2,1.5.3.4.1,1.2,4.1.7,4.6h0Zm.5,6.6c.5-5,1.5-5,.9-9.3-.2-1.5-1.1-1.3,1.9-.8,3.2.6,3.2.4,3,.7-2.1,3.5.2,4.9,1.9,5,3.6.3,1.8-3.7,5.3-5.3.9-.6,2.1-.7,3.1-.2,1.5.4,2.7,1.7,2.9,3.3,1,3.1.2,10.3-4.4,11.1-1.2.2-.6,2.3,1.5,1.1,2.5-1.7,2.4-2.2,2.5-1.7.5,1.9,2.1,4,3.9,2.7.3-.2.1.9,0,1.4-1.2,3.3,2.4,6.8,4,4.9.2-.2.2-.1.3,0,.6,1,1.3,1.8,2.2,2.5.6.5,1.4.7,2.1.5.6,0,1.2-1,1.5-1.1.9.7,2.1,1,3.2.9,3.4-.4,3.4-3.1,4.4-2.8.8.2,1.7.2,2.6.1,1-.2,1-1.2,1.7-.6.6.5,1.9-.2,3.1-.4.2,0,.7.8.3.9-.7.4-1.5.8-2.3.9-.7,0-1.3.3-1.9.6-1.4.5-.9,1-2.9,1.4-2.3.4-4.4,2.2-6,2.8-1.6.4-3.1,1.3-4.1,2.6-1.6,1.9-1.5,1.1-2.9,2.5-2.5,2.4-2.5,3.4-3.7,5.5-.5.9-.6-.9-1.9-2.5-1.9-2.4-.9-4.5-4.1-7-1.6-1.3-10.4,1.3-12.2-.6-4.9-5.1-4.6-10.4-5-13.2-.5-1.9-.8-3.8-.9-5.8h0Zm-12.7,30.8c-2.9-6.1-3.3-5.7-2.3-9,.6-2.2-.9-3.1.6-4.7.8-.9,1.3-2,1.3-3.2,0-1.3.8-2.4,2.1-2.8,2-.5,1.5-3,3.6-3.6,1.9-.6,2.6,1.1,4.2,2,1.5.9,2.7,2,3.8,3.3.3.6.6,1.2.8,1.9.5,1.2.7,1.3.4,1.4-1.5.6-2.2-.3-3.6-1.3-.7-.4-1.4-.9-2-1.5-3.1-3.3-3.8-1.6-2.7-.8,1.1.8,2.6,2.4,3,2.6.9.7,1.7,1.4,2.3,2.3.7.8,1.2,1.8,1.4,2.9,0,0,0,0,0,0h0c-1.1-.6-1.9-1.5-2.5-1.6-1-.2-1.9-.6-2.8-1.2-1.2-.6-2.4-1-3.6-1.3-.9-.3-.9.7-.6,1,.7.4,1.5.8,2.3,1,1.4.4,1.9,1.1,4.2,1.8.8.2.5.4,3.3,2.3.9.7.5.5-.7,1.8-.6.6.4,1.4,1.2.5.2-.3.6-.5.9-.7.2-.2.3-.4,1.2.8,1,1.3,2.5,2,1.7,2.9-.6.6-1.6,0-3.1-.1-2.1-1.3-4.4-2.5-6.7-3.5-.9-.8-1.8-.7-3.5-1.2-2.1-.7-2.5-1.1-3-.6-1.1.9,1.3,1.5,1.6,1.6-.6.2-2.3.6-2,1.1.5.9,1-.2,4.3,0,1.6,0,1.6.1,4.7,1.7,3.3,1.6,3.9,1.8,3.3,2.9-.4.7-2.5.6-3.3.4-.5-.1-.9,0-1.6-.2-1.7-.5-3-.9-4-.6-1.1.4-1.4-.3-2.1.1-1.4.8,1.3,1.5,2.2,1.2,1.1-.4,3.2.3,4.8,2.1.8.9.7,2.4,1.1,3.2.3.6,1.8,1,.8-2.4-.1-.5-.2-.9-.3-1.4,0-.3,0-.3.3-.3,3.3,0,2.9-1.2,3.5-1.4,0,.2,0-.1,0,1.2-.1,1.6.7,2.4.4,3.3-.8,2.6-5.3,5-7.6,7-.6.5-.8-3.5-3.4-5.9-1.4-1.4-2.7-2.9-3.7-4.6h0Zm6.9,22.3c-.7.1-1.1-.3-1.7-.6-.7-.4-1.3-1.1-1.7-1.9-.3-.6-.7-1.1-1-1.7-.4-.8-2.5-1.7-2.8-2.2-2.2-3.3-.6-6.8,1.6-10.1.6-.9.6-1.2.9-.9,1.4,1.4.7.3-1.1,4.1-.8,1.3-1.1,2.8-.9,4.3,0,.7.7,1.1,1.2,1.4,1.4.7,2.4-.2,4.9-1.9,5-4.1,8.6-6.1,9.6-9.6.4-.8.3-1.7-.3-2.3-.3-.3-.2-.5,0-1.5.1-.7.9-.3,1.4.3,1,1.3.5,1.2,1.1,3,.3.7,1.1.8,1.6,2.1.7,2,1.8,1,1.3,4-.2,1.5-.2,1.1-.9,2.2-.2.3-.8,1.2-1.6,2.2-5.9,7.5-3,3.8-5.7,6.3-1,.8-2.1,1.5-3.3,2.1-.9.3-1.8.5-2.8.7h0Zm2.2,5.2c-.7-1-1.1-2.1-1.2-3.3,0-1.2.3.2,3.9-2,.6-.3.5-.3.7.2.4,1,.9,1.9,1.6,2.7.3.3,0,0-3.3,4.4-.3.4-.1-.4-1.7-2.1h0Zm4.9.2c2.5-3.2,2.1-3.1,2.5-3.1,2-.2,4.1,0,6,.4.2,0,0,0,0,.2-.2.6-1.1,2-1.9,3.4-1.9,3.6-1,3.8-3.5,7.1-.8,1.1-.9,1.3-1.2,1.2-1.8-.6-6.7.2-6.5-.7.9-2.8.6-3.5,4.5-8.5h0Zm-8.2,20.8c.6-1.3.6-2.4,1.3-3.5.7-1.6,1.2-3.3,1.6-5,.4-2.5.3-2.3.9-2.2,6.5.5,5.9.4,5.8.6-1.6,3-2.3,7.1-3.8,11.1-.2.6,0,.6-2.6,0-3.6-.7-3.4-.6-3.2-1h0Zm-1.5,2.9c1-1.3.7-1.5,1.2-1.5,5.4,1.3,5.4,1,5.1,1.5-1.7,3.1-3.8,4.1-5.4,9.9,0,.2-.2.2-.3.1-2.9-1.2,1-.2-6-1.9,1-2.4,1.7-2.9,5.5-8.1h0Zm-6.7,13.5c1.1-5.1.1-4.4,2.3-3.9,1.3.3,3.5.6,4.8,1.8-.9,5.7-2.9,4.4-4.6,8.5-.2.4.2,0-4.2-1.7-.3-.1-.7-.2-.5-.5,1.5-2.4,2-3.2,2.2-4.1h0Zm1.6,11.8c0,.7,0,2.4-.4,1.9-2.1-2.6-3.1-2.6-3.6-3.8-.7-1.3-.8-2.9-.3-4.3,0-.2.2-.3.4-.2,6.5,3.2,3.7,1,4,6.4h0Zm-6.1-2.1c-.5,3.7-.2,2.4-.7,4.4-3.6-1.5-2.8-4.1-5.2-6.2-.9-.8,1.3-5,3.4-6.2,5.5.6,4,0,2.8,3.7-.6,1.9,0,2.5-.2,4.3h0Zm-4.7-8.1c-.6.4-.8,1-1.8,2.5-1.1,1.6-.7,2.9-1.3,2.5-2.3-1.2-2.2-1-1.9-1.3,2.5-2.9,3.7-5.4,4.2-4.9.9.8,1.2.9.8,1.2h0Zm-2.3-2c-.6.6-1,1.2-1.5,1.9-3.6,5.3-2,2-6.9,1.2-.4,0-.8-.2-1.1-.4,0,0,0,0,0-.1,0,0,0,0,0-.1,1.3-1.2,2.8-3.8,4.4-4.4.1,0,6.2,1.1,5.1,2h0Zm-3.8,7.1c0-.1.1-.1.2,0,.5.2,3,1.2,2.7,1.7-.2,2.1-1.5,9-1.5,9.1-.2,1.3,0,2-.5,1.7-1.9-1.3-1.2-.7-4-3.7-.3-.4-.6-.4-.7-.6,0-.4,2.4-4.1,3-6.4.2-.6.4-1.1.7-1.6h0Zm2.5,12.9c.4-3.7,1.7-10.1,1.8-10.4.5.3,2.2,3.9,2.8,4.5,1.8,1.8,3.2,1.4,3,2.3-.7,4.3,2.7,12.3,1.8,11.8-4.7-2.2-4.7-2.5-8.2-6.3-1.2-1.3-1.3-1.4-1.2-1.8h0Zm9-6.4c.5-3.1,0-2,2.6-.1.6.5,1.1,1.1,1.5,1.7.3.4-.2.2-.5.4-.5.4-1.1.2-1.6.4-.9-.2-.2,0-2-.8-.2,0-.2-.2,0-1.6h0Zm1.5-15.7c.4,0,.7,0,1,.2,0,0,0,.2.1.2-.3,2.1-.2,2-1,3.2,0,0,0,0,0,0,0,0,0,0,0,0,0,0,0,0,0,0,0,0,0,0,0,0-2-.9-3.6-.4-3.3-.9.6-1.5,1.9-2.6,3.4-2.9h0Zm-3.5.3c-.8.8-.3.9-1.8,2.2-.4.4-.5.4-.8,0s-1-.7-.4-1c.1,0,3.8-2.2,3-1.2h0Zm-1.7-1.9c.1,0,0,0,.5.6-1,.5-2,1.1-2.9,1.7,0,0,0,0,0,0,0,0,0,0-.1,0,0,0,0,0-.1,0,0,0,0,0-.1,0-.1-.1-.3-.2-.4-.3-.6-.5-1.4-.9-2.2-1-.6-.3-1.3-.4-2-.4,0,0,0,0-.1,0,.3-.4.2,0,2.3-1,1.7-1,3.8-.9,5.4.3h0Zm-21.6-24c5.3-2.3,4.8-.5,21.1,6.9.4.2,1.7.8,2,.9-.3.3-12.7,6.1-14.3,6.9-.3.2,0,0-.5-1.7-.3-1.2,1.5-.9,7.7-4.5.5-.3.7-.9.5-1.4,0-.2-.2-.3-.4-.4-.9-.6-12.5-6.4-13.3-5.7-.3.1-.5.3-.8.3-.3.2-.7.3-1.1.2-.7-.1-.8,0-.8-.8,0-.3-.3-.5,0-.7h0Zm8.1,11c-.9-4.6-2.4-5.6-4.1-7.9-.2-.4-.6-.7-1-.9-.2-.1,0-.2,0-.2.8-.5,11.9,5.2,12.3,5.6-2,1.2-4.1,2.3-6.3,3.3-.3,0-.9.8-.9.2h0Zm-10.4-15.1c.8,2.7,2.4,9.6,2.7,11.3,0,.4-1.1.6-2.2,0-.7-.3-2.4-1.5-2.5-2.2-.9-2.6-1.7-5.3-2.3-8-.1-.5.2-.4,1.1-.4,1.9,0,3-1.3,3.2-.7h0Zm-5.3-2.4c-.9-3-.4-1.4,1.8-2.2.8-.3.7-1.2-.1-1-.7.2-1.4.3-2,0-.5-.1-.4-.8-.1-1.3.2-.3.5-.7,2.4-1.2,1.8-.5,2.1,1.5,3,6.3.2,1-3.6,1.9-4.3,1.3-.3-.2-.3-.9-.6-1.9h0Zm.2,7.2c.5-.3.6-.4.7.3.8,2.6.8,2.2.7,2.5-.6-.4-1.2-.8-1.6-1.3,0-.2-.3-1.2.2-1.5h0Zm-25.8,18.7c-.3.5-1.1.9-1.5.4-.4-.4-.7-.9-.9-1.4.1-5,3.9-1.4,2.5,1Zm3.1-1c-1,.4-1.6.7-1.6.4,0-.5-.1-1,0-1.5,0,0,0,0,0,0,0,0,0,0,0,0,0,0,.1,0,.2,0,1.5,1,1.4.9,1.3,1h0Zm17.2,8c-1.9.9-1.1.9-5.1-1.5-9.2-5.8-14.9-10-15.7-10s5-2.1,6.5-3c.5-.2,1-.4,1.5-.6,7.8-3.4,11.5-5.7,10.3-4.5-1.1,1.1-.2,2-1.5,2.5-.3,0-10,4.6-11,4.8-.7.2-1.1,1-.3,1.4,1.4.7,9.6,5.6,12,8,2.4,2.4,3.6,2.7,3.2,2.9h0Zm-4.7-8.7c-.9,1.9-.2,3-.8,2.6-9.6-6.3-1.2-.8-8.3-5.2-.5-.3,8.5-4,10.5-4.9.2,0,.5.4.2.8-1,.7-1.7,1.9-1.8,3.1,0,2.8.7,2.6.3,3.6h0Zm10.2,9.2c-4.9-1.9-5.3-1.9-7.5-4.1-1.8-1.8-2.4-2.7-1.7-3.9,1-1.5,0-2.3,0-4.7,0-.9.7-1.3,1.5-2.6s-.2-1.6.4-3.5c.2-.8.7-.9,1.7-2,.8-.9.4-1.9,1.2-3,2-2.6,7.1,4.9,10,5.5,1.6.3,3.4.5,4.4-.6.2-.2,0-.5,0-.7-.1-.6-.9.3-1.2-.5-.2-.8-.9-3.4-.9-3.4,0-.2,0-.4.1-.5.4-.3.6,0,.9.1,1.3.3,1.8,1.6,3.1,3.2.9,1.1,1.4,2.4,1.6,3.7,1.7,7.7.6,5.4-2.1,6.8-.1,0-2.8,1.4-2.9,1.4-2.1.2-5.2,3.1-6.5,5.4-1.6,2.8-1.3,3.7-2.2,3.3h0Zm7.9,13.4h0c-.9-.8-1.7-1.6-2.4-2.6-2.2-2.4-6.4-3.4-4.3-7.3,1.5-2.8,1.5-6.4,4.7-8.9,1-.9,2.2-1.6,3.5-1.9,1.1-.3,2.1-1.3,5.7-2.3,1.7-.5,3.1,1,3.9,2.6,1.2,2.4,5.5,2.3,2.7,3.1-1.2.4-2.3,1.1-3.2,1.9-1.3,1.1-2.5,2.3-3.5,3.7-.2.2-.9.6-1.5,1.2s-.7.7-2.5,3.2c-.4.8-.7,1.7-.9,2.5-.4,1.6-.9,3.2-1.6,4.6,0,.2-.4.3-.5.1h0Zm7.8,3.2c-.9,2-.3,4.4-.5,4.9.1,0,.1,0,0,0,0-.5-4.9-2.8-5.4-4.6-.3-1-.3-2.1,0-3.2.3-.8,1.5,1,3.4,1.4.9.3,1.7.7,2.5,1.1,0,0,.1.2,0,.3h0Zm-2-2.5c-1.2-.3-2.2-.9-3.2-1.6-.2,0-.3-.2-.1-.4.6-.9,1-4.6,2.3-6.2,1.1-1.4,1.3-1.9,2.7-1.2,2,.9.9,0,2.8.9,3.5,1.7,1.5.8,1,3.7-.3,1.1-.8,2.2-1.5,3.2-2.3,4.4-.8,2.3-4.1,1.6h0Zm9.9,16.8c-1.5-.9-2.9-2.1-4.2-3.3-.7-.8-3.2-4-3.1-5,0-1.6-.3-3.5.5-5.3.3-.6,1.3,1.8,4.1,3.7,2.7,1.8.4-1.4,2.2,7,.6,2.7.8,3.2.4,2.9h0Zm15.2,8.4c-1.7-.5-2.5-.1-4.5-.9-4.9-1.9-5.6-3.4-7.6-5.3-.7-.7-1.2-.7-1.4-1.5,0,0-1.9-7.9-1.7-8.7.5.4.9.9,1.3,1.4,2.3,2.8,5.4,4.8,8.8,6,.5,0,.4.2,1.6,2.2.6,1.3,1.5,2.4,2.5,3.3.6.5,1.2-.3,1,.2-.3,2.9.4,3.4,0,3.3h0Zm0-8.3c-.7,2.8.5,4.8,0,4.1-1-1-1.8-2.1-2.4-3.3-.6-1.1-.7-1,.2-.9h0c2.3,0,2.3-.2,2.3,0h0Zm0-1.2c-3.8,0-3.7-.1-3.8-.5-.4-1.1-1-1.7-2.3-9,0-1-.1-1.9,0-2.9,0-.9,1,1.5,4.9-.2.5-.2.1-.6,3.6,6.2.6,1.2,1,1.1.3,1.7-1.1,1-1.8,4.7-2.6,4.7h0Zm6,12.2c-.4,0-.5,0-3.2-1.4-1-.5-.9-.9-1.1-1.1-1.3-2.4.2-3.6-.3-5.1-.5-1.9-.1-3.9.9-5.5,0-.2.5-1.3.7-2,.4-1.1,2.7-2,4.6-4.2,2.1-2.5,2.4-1.8,7.2-4.1,3.2-1.6,6.8-2,10.2-1.2,1.1,0,2.2.5,2.9,1.4,1.5,1.2,2.4.5,3.7,1.9.6.8,1.2,1.5,1.8,2.1,2.7,2.6,1,3.5.7,5.2-.3.8-.7,1.5-1.3,2.1-1.1,1-.6,2.4-3,4.5-1.3,1.2-2.4,3.4-3.2,3.9-2.3,1.2,1.9-.7-7.1,3.4-1.8.8-1.7.1-2.7.4-10.2.5-3.9-.2-11-.4h0Zm15.5,5.8c0,.9-.1,1.1-.4,1.1-2.2.1-3.1.4-3.9,0-2.2-1.3-4.7-2.1-7.3-2.2,0-1,.6-1.9,1.4-2.5,1-.2,3,0,6-.2,1.2,0,1,.6,3.9-.7.9-.4.8-.5,1.6-.7-.1,1.2-1.2,5.3-1.2,5.3h0Zm13.8-3.1c0,.7-.9,4.3-1,5,0,.3-.1.4-.4.3,0,0-.2,0-.4,0-7.5-.9-6.8-.2-8.6-.6-2.1-.4-2.4-.2-2.2-.7.6-2.2,1-4.4,1.2-6.6,0-.4.2-.4,1.6-1,2.9-1.1,4.1-4.8,6.6-6.5.2-.2.5,0,3.4.4.2,0,.3,0,.2.4-1,7.3-.1,5.4-.6,9.3h0Zm14.3-7.3c-1.6,13.2-.1,13.1-1.2,13.1-3.2.1-10.3-.5-12.4-.5-1.2,0,.3-2.1.7-7.2-.2-1.6-.2-3.2,0-4.8.4-2.8.2-2.8.5-2.7,11.8,2.5,12.4.7,12.2,2.1h0Zm-1.5-1.7c-3.4,0-2,0-8.8-1.1-1.3-.2-1.9-.2-1.8-.5.5-3.4,1.7-6.1,1.1-10.5-.2-1.8-.9-.2,9.1.8,1.8.2,1.9,0,1.9.4,0,.8,0,1.6,0,2.5,0,1.2.2,2.3.4,3.5.4,2.1,0,1.3,0,4.8,0,.3,0,.3-1.7.2h0Zm4.1,14.6c-2,.2-2.2.3-2.1,0,0-.6-.2-2.8-.2-3.4,0-.7,1-9,1-9.1,0-.7-.1-.7.7-.8,7.5-1.2,6.2,0,11.2-.2,1.3,0-.6.4,1.8,13.3.1.8-8.7,0-12.4.3h0Zm21.6-.2c-2.1,0-1.6.2-2.6,0-3.7-.6-5.2,1.2-5.6-1.1-1.5-8.5-1.2-11.2-1.2-11.2,0-1.6-.5-1.2,2.8-1.8,5.1-.5,5.1.3,8.4.3s.6,0,.6.7c.4,15,1.6,13.3-2.5,13.1h0Zm3.5-15.5c0-.5-.5-5.7-.5-5.7-.2-2.7-.8-3.9-.7-6.1,0-.3,0-.3,1.4-.4,3-.1,3.4-.6,5.7-.7,3.4,0,2.5-2.4,3.6,8.7.3,3.2.6,3.2-.1,3.4-.1,0,1,0-6.4.9-3.1.4-2.8.5-2.9,0h0Zm10.4,13.5c-1.9.1-2.4,1-6.1,1.5-1.1,0-2.2.2-3.3.3-.8.2-.6-3.7-.6-10.1,0-3.7-.3-3.6,0-3.6.5,0,8.6-1.1,9.1-1.2.6-.1.4-.2.7,3.3,0,.1.3,9.8.2,9.8h0Zm-.6-26.9c0-.1.4-.1.6-.2,1.3-.1,2.6-.5,3.8-1.1,1.5-.6,3-.9,4.6-1,.8,0,.9-.3,1.1.2,1.2,4.1,1.1,7.7,1.5,10.4.3,2.4.5,2.4.2,2.4-9.7.4-4,0-10.4,1.4,0,0-1.4-12.1-1.4-12.2h0Zm10.4,26.4c-2.5-.3-5.1-.2-7.6.3-.6,0-.7,0-.6-.6,0-1.6-.1-3.3-.3-4.9,0-7.6-.7-7.6,0-7.8,5.2-1.5,3.6-1.4,9.4-1.4.9,0,.9,0,.9.4.2,3.7.2,3.4.1,3.4,0,11,1,10.9-1.9,10.6h0Zm2.6-18.1h0c-.5-3.2.2-3.1-1.3-10-.2-1-.4-1.1-.1-1.2,1-.3,2-.9,3.1-1.1,2-.4.9.1,4.1-1.8.9-.6.9-.6,1,.2.2,2.8.4,2.6.6,4.3.3,3.9,0,1.5.5,8.5,0,.5,0,1-.1,1.6,0,.7-6.8,2.1-7,2.1-.7,0-.4-.2-.8-2.5h0Zm4.7,17.6c-5.7.8-3.8,1.2-4-2.6,0-11.3-.4-11.3,0-11.3,1.5,0,1-.3,6.6-1.3.9-.2,0,2.5.1,2.9,0,.3.2,8.6.6,11.3.1.9.3.5-3.4,1h0Z" fill="#1d212d"/></g></g></svg>